<?xml version="1.0" encoding="utf-8"?>
<!-- Generator: Adobe Illustrator 24.1.0, SVG Export Plug-In . SVG Version: 6.00 Build 0)  -->
<svg version="1.1" id="Layer_1" xmlns="http://www.w3.org/2000/svg" xmlns:xlink="http://www.w3.org/1999/xlink" x="0px" y="0px"
	 viewBox="0 0 730 500" style="enable-background:new 0 0 730 500;" xml:space="preserve">
<style type="text/css">
	.st0{clip-path:url(#SVGID_2_);}
	.st1{fill:#534A9E;}
	.st2{opacity:0.15;fill:#FFFFFF;enable-background:new    ;}
	.st3{opacity:0.4;fill:#FFFFFF;enable-background:new    ;}
	.st4{opacity:0.2;fill:#FFFFFF;enable-background:new    ;}
	.st5{opacity:0.5;fill:#FFFFFF;enable-background:new    ;}
	.st6{fill-rule:evenodd;clip-rule:evenodd;fill:#BEBFC9;fill-opacity:0.4;}
</style>
<g>
	<defs>
		<rect id="SVGID_1_" x="0" y="-0.4" width="730" height="500"/>
	</defs>
	<clipPath id="SVGID_2_">
		<use xlink:href="#SVGID_1_"  style="overflow:visible;"/>
	</clipPath>
	<g class="st0">
		<rect class="st1" width="730" height="500"/>
		<g>
			<path class="st2" d="M773.2,51c-2.9,0.9-6.2,0.6-9-0.9s-4.8-3.9-5.8-7c-0.9-3-0.6-6.2,0.9-9c1.4-2.8,3.9-4.8,7-5.8
				c2.9-0.9,6.2-0.6,9,0.9c2.8,1.4,4.8,3.9,5.8,7c0.9,2.9,0.6,6.2-0.9,9C778.6,48,776.1,50.1,773.2,51z M766.9,30.6
				c-2.5,0.7-4.5,2.5-5.8,4.8c-1.2,2.3-1.4,4.9-0.7,7.4c0.7,2.5,2.5,4.5,4.8,5.8c2.3,1.2,4.9,1.4,7.4,0.7c2.5-0.7,4.5-2.5,5.8-4.8
				c1.2-2.3,1.4-4.9,0.7-7.4c-0.7-2.5-2.5-4.5-4.8-5.8C771.9,30,769.3,29.7,766.9,30.6z"/>
			<path class="st3" d="M698.2,383.9c-2,0.6-4.3,0.4-6.4-0.6c-2-1-3.3-2.8-4.1-4.9c-0.6-2-0.4-4.3,0.6-6.4c1-1.9,2.8-3.3,4.9-4.1
				c2-0.6,4.3-0.4,6.4,0.6c1.9,1,3.3,2.8,4.1,4.9c0.6,2,0.4,4.3-0.6,6.4C702.1,381.9,700.2,383.2,698.2,383.9z M693.7,369.4
				c-1.7,0.6-3.2,1.7-4.1,3.3s-1,3.5-0.4,5.2c0.6,1.7,1.7,3.2,3.3,4.1c1.6,0.9,3.5,1,5.2,0.4s3.2-1.7,4.1-3.3c0.9-1.6,1-3.5,0.4-5.2
				c-0.6-1.7-1.7-3.2-3.3-4.1C697.3,369,695.4,368.8,693.7,369.4L693.7,369.4z"/>
			<path class="st4" d="M600.3,427.4l-14.3-7.5l7.5-14.3l14.3,7.5L600.3,427.4z M588.6,418.8l10.9,5.8l5.8-10.9l-10.9-5.8
				L588.6,418.8z"/>
			<path class="st3" d="M742.4,121.6l-14.3-7.5l7.5-14.3l14.3,7.5L742.4,121.6z M730.6,113l10.9,5.8l5.8-10.9l-10.9-5.8L730.6,113z"
				/>
			<path class="st5" d="M632.1,120.6c-2,0.6-4.8-0.3-7.2-1.3c-2.6-1-5.7-2.2-6.8-0.7l-1.4-1.3c2.2-2.3,5.7-1,9,0.3
				c2.8,1,5.7,2.2,6.8,0.7c1.3-1.3,0-4.2-1.3-6.8c-1.4-3.3-3-6.7-0.9-9c2.2-2.3,5.7-1,9,0.3c2.8,1,5.7,2.2,6.8,0.7
				c1.3-1.3,0-4.2-1.3-6.8c-1.4-3.3-3-6.7-0.9-9c2.2-2.3,5.7-1,9,0.3c2.8,1,5.7,2.2,6.8,0.7c1.3-1.3,0-4.2-1.3-6.8
				c-1.4-3.3-3-6.7-0.9-9c2.2-2.3,5.7-1,9,0.3c2.8,1,5.7,2.2,6.8,0.7l1.4,1.3c-0.4,0.6-1,0.9-1.7,1.2c-2,0.6-4.8-0.3-7.2-1.3
				c-2.6-1-5.7-2.2-6.8-0.7c-1.2,1.4,0,4.2,1.3,6.8c1.4,3.3,3,6.7,0.9,9c-2.2,2.3-5.7,1-9-0.3c-2.8-1-5.7-2-7-0.7
				c-1.3,1.3,0,4.2,1.3,6.8c1.4,3.3,3,6.7,0.9,9c-2.2,2.3-5.7,1-9-0.3c-2.8-1-5.7-2.2-6.8-0.7c-1.3,1.3,0,4.1,1.3,6.8
				c1.4,3.3,3,6.7,0.9,9C633.4,120,632.8,120.3,632.1,120.6L632.1,120.6z"/>
			<path class="st3" d="M799.5,385.8c-1.7,0.6-3.3-0.3-5.1-1c-1.7-0.7-3.6-1.7-4.9-0.6l-0.7-1c2.2-1.9,4.5-0.9,6.5,0.1
				c1.7,0.9,3.6,1.7,4.9,0.6c1.3-1.2,0.9-3.5,0.6-5.5c-0.3-2.6-0.7-5.5,1.4-7.4c2.2-1.9,4.5-0.9,6.5,0.1c1.7,0.9,3.6,1.7,4.9,0.6
				c1.3-1.2,0.9-3.5,0.6-5.7c-0.3-2.6-0.7-5.5,1.4-7.4s4.5-0.9,6.5,0.1c1.7,0.9,3.6,1.7,4.9,0.6c1.3-1.2,0.9-3.5,0.6-5.7
				c-0.3-2.6-0.7-5.5,1.4-7.4c2.2-1.9,4.5-0.9,6.5,0.1c1.7,0.9,3.6,1.7,4.9,0.6l0.7,1c-0.4,0.4-1,0.7-1.4,0.9
				c-1.7,0.6-3.3-0.3-5.1-1c-1.6-0.7-3.6-1.7-4.9-0.6s-0.9,3.5-0.7,5.7c0.3,2.6,0.7,5.5-1.4,7.4c-2.2,1.9-4.5,0.9-6.5-0.1
				c-1.7-0.9-3.6-1.7-4.9-0.6s-0.9,3.5-0.6,5.7c0.3,2.6,0.7,5.5-1.4,7.4s-4.5,0.9-6.5-0.1c-1.7-0.9-3.6-1.7-4.9-0.6
				c-1.3,1.2-0.9,3.5-0.6,5.7c0.3,2.6,0.7,5.5-1.4,7.4C800.5,385.4,800,385.7,799.5,385.8z"/>
			<g>
				<path class="st6" d="M870.5,495.7c0.9,0,1.4-0.6,1.4-1.4c0-0.9-0.6-1.4-1.4-1.4c-0.9,0-1.4,0.6-1.4,1.4
					C869,495.1,869.6,495.7,870.5,495.7z"/>
				<path class="st6" d="M853.1,495.7c0.9,0,1.4-0.6,1.4-1.4c0-0.9-0.6-1.4-1.4-1.4c-0.9,0-1.4,0.6-1.4,1.4
					C851.6,495.1,852.2,495.7,853.1,495.7z"/>
				<path class="st6" d="M835.7,495.7c0.9,0,1.4-0.6,1.4-1.4c0-0.9-0.6-1.4-1.4-1.4c-0.9,0-1.4,0.6-1.4,1.4
					C834.2,495.1,834.8,495.7,835.7,495.7z"/>
				<path class="st6" d="M818.3,495.7c0.9,0,1.4-0.6,1.4-1.4c0-0.9-0.6-1.4-1.4-1.4s-1.4,0.6-1.4,1.4
					C816.9,495.1,817.4,495.7,818.3,495.7z"/>
				<path class="st6" d="M800.9,495.7c0.9,0,1.4-0.6,1.4-1.4c0-0.9-0.6-1.4-1.4-1.4s-1.4,0.6-1.4,1.4
					C799.5,495.1,800,495.7,800.9,495.7z"/>
				<path class="st6" d="M783.5,495.7c0.9,0,1.4-0.6,1.4-1.4c0-0.9-0.6-1.4-1.4-1.4s-1.4,0.6-1.4,1.4
					C782.1,495.1,782.6,495.7,783.5,495.7z"/>
				<path class="st6" d="M766.1,495.7c0.9,0,1.4-0.6,1.4-1.4c0-0.9-0.6-1.4-1.4-1.4s-1.4,0.6-1.4,1.4
					C764.7,495.1,765.3,495.7,766.1,495.7z"/>
				<path class="st6" d="M748.7,495.7c0.9,0,1.4-0.6,1.4-1.4c0-0.9-0.6-1.4-1.4-1.4s-1.4,0.6-1.4,1.4
					C747.3,495.1,747.9,495.7,748.7,495.7z"/>
				<path class="st6" d="M731.3,495.7c0.9,0,1.4-0.6,1.4-1.4c0-0.9-0.6-1.4-1.4-1.4s-1.4,0.6-1.4,1.4
					C729.9,495.1,730.5,495.7,731.3,495.7z"/>
				<path class="st6" d="M714,495.7c0.9,0,1.4-0.6,1.4-1.4c0-0.9-0.6-1.4-1.4-1.4c-0.9,0-1.4,0.6-1.4,1.4
					C712.5,495.1,713.1,495.7,714,495.7z"/>
				<path class="st6" d="M870.5,478.3c0.9,0,1.4-0.6,1.4-1.4c0-0.9-0.6-1.4-1.4-1.4c-0.9,0-1.4,0.6-1.4,1.4
					C869,477.7,869.6,478.3,870.5,478.3z"/>
				<path class="st6" d="M853.1,478.3c0.9,0,1.4-0.6,1.4-1.4c0-0.9-0.6-1.4-1.4-1.4c-0.9,0-1.4,0.6-1.4,1.4
					C851.6,477.7,852.2,478.3,853.1,478.3z"/>
				<path class="st6" d="M835.7,478.3c0.9,0,1.4-0.6,1.4-1.4c0-0.9-0.6-1.4-1.4-1.4c-0.9,0-1.4,0.6-1.4,1.4
					C834.2,477.7,834.8,478.3,835.7,478.3z"/>
				<path class="st6" d="M818.3,478.3c0.9,0,1.4-0.6,1.4-1.4c0-0.9-0.6-1.4-1.4-1.4s-1.4,0.6-1.4,1.4
					C816.9,477.7,817.4,478.3,818.3,478.3z"/>
				<path class="st6" d="M800.9,478.3c0.9,0,1.4-0.6,1.4-1.4c0-0.9-0.6-1.4-1.4-1.4s-1.4,0.6-1.4,1.4
					C799.5,477.7,800,478.3,800.9,478.3z"/>
				<path class="st6" d="M783.5,478.3c0.9,0,1.4-0.6,1.4-1.4c0-0.9-0.6-1.4-1.4-1.4s-1.4,0.6-1.4,1.4
					C782.1,477.7,782.6,478.3,783.5,478.3z"/>
				<path class="st6" d="M766.1,478.3c0.9,0,1.4-0.6,1.4-1.4c0-0.9-0.6-1.4-1.4-1.4s-1.4,0.6-1.4,1.4
					C764.7,477.7,765.3,478.3,766.1,478.3z"/>
				<path class="st6" d="M748.7,478.3c0.9,0,1.4-0.6,1.4-1.4c0-0.9-0.6-1.4-1.4-1.4s-1.4,0.6-1.4,1.4
					C747.3,477.7,747.9,478.3,748.7,478.3z"/>
				<path class="st6" d="M731.3,478.3c0.9,0,1.4-0.6,1.4-1.4c0-0.9-0.6-1.4-1.4-1.4s-1.4,0.6-1.4,1.4
					C729.9,477.7,730.5,478.3,731.3,478.3z"/>
				<path class="st6" d="M714,478.3c0.9,0,1.4-0.6,1.4-1.4c0-0.9-0.6-1.4-1.4-1.4c-0.9,0-1.4,0.6-1.4,1.4
					C712.5,477.7,713.1,478.3,714,478.3z"/>
				<path class="st6" d="M870.5,460.9c0.9,0,1.4-0.6,1.4-1.4s-0.6-1.4-1.4-1.4c-0.9,0-1.4,0.6-1.4,1.4S869.6,460.9,870.5,460.9z"/>
				<path class="st6" d="M853.1,460.9c0.9,0,1.4-0.6,1.4-1.4s-0.6-1.4-1.4-1.4c-0.9,0-1.4,0.6-1.4,1.4S852.2,460.9,853.1,460.9z"/>
				<path class="st6" d="M835.7,460.9c0.9,0,1.4-0.6,1.4-1.4s-0.6-1.4-1.4-1.4c-0.9,0-1.4,0.6-1.4,1.4S834.8,460.9,835.7,460.9z"/>
				<path class="st6" d="M818.3,460.9c0.9,0,1.4-0.6,1.4-1.4s-0.6-1.4-1.4-1.4s-1.4,0.6-1.4,1.4S817.4,460.9,818.3,460.9z"/>
				<path class="st6" d="M800.9,460.9c0.9,0,1.4-0.6,1.4-1.4s-0.6-1.4-1.4-1.4s-1.4,0.6-1.4,1.4S800,460.9,800.9,460.9z"/>
				<path class="st6" d="M783.5,460.9c0.9,0,1.4-0.6,1.4-1.4s-0.6-1.4-1.4-1.4s-1.4,0.6-1.4,1.4S782.6,460.9,783.5,460.9z"/>
				<path class="st6" d="M766.1,460.9c0.9,0,1.4-0.6,1.4-1.4s-0.6-1.4-1.4-1.4s-1.4,0.6-1.4,1.4S765.3,460.9,766.1,460.9z"/>
				<path class="st6" d="M748.7,460.9c0.9,0,1.4-0.6,1.4-1.4s-0.6-1.4-1.4-1.4s-1.4,0.6-1.4,1.4S747.9,460.9,748.7,460.9z"/>
				<path class="st6" d="M731.3,460.9c0.9,0,1.4-0.6,1.4-1.4s-0.6-1.4-1.4-1.4s-1.4,0.6-1.4,1.4S730.5,460.9,731.3,460.9z"/>
				<path class="st6" d="M714,460.9c0.9,0,1.4-0.6,1.4-1.4s-0.6-1.4-1.4-1.4c-0.9,0-1.4,0.6-1.4,1.4S713.1,460.9,714,460.9z"/>
				<path class="st6" d="M870.5,443.5c0.9,0,1.4-0.6,1.4-1.4s-0.6-1.4-1.4-1.4c-0.9,0-1.4,0.6-1.4,1.4S869.6,443.5,870.5,443.5z"/>
				<path class="st6" d="M853.1,443.5c0.9,0,1.4-0.6,1.4-1.4s-0.6-1.4-1.4-1.4c-0.9,0-1.4,0.6-1.4,1.4S852.2,443.5,853.1,443.5z"/>
				<path class="st6" d="M835.7,443.5c0.9,0,1.4-0.6,1.4-1.4s-0.6-1.4-1.4-1.4c-0.9,0-1.4,0.6-1.4,1.4S834.8,443.5,835.7,443.5z"/>
				<path class="st6" d="M818.3,443.5c0.9,0,1.4-0.6,1.4-1.4s-0.6-1.4-1.4-1.4s-1.4,0.6-1.4,1.4S817.4,443.5,818.3,443.5z"/>
				<path class="st6" d="M800.9,443.5c0.9,0,1.4-0.6,1.4-1.4s-0.6-1.4-1.4-1.4s-1.4,0.6-1.4,1.4S800,443.5,800.9,443.5z"/>
				<path class="st6" d="M783.5,443.5c0.9,0,1.4-0.6,1.4-1.4s-0.6-1.4-1.4-1.4s-1.4,0.6-1.4,1.4S782.6,443.5,783.5,443.5z"/>
				<path class="st6" d="M766.1,443.5c0.9,0,1.4-0.6,1.4-1.4s-0.6-1.4-1.4-1.4s-1.4,0.6-1.4,1.4S765.3,443.5,766.1,443.5z"/>
				<path class="st6" d="M748.7,443.5c0.9,0,1.4-0.6,1.4-1.4s-0.6-1.4-1.4-1.4s-1.4,0.6-1.4,1.4S747.9,443.5,748.7,443.5z"/>
				<path class="st6" d="M731.3,443.5c0.9,0,1.4-0.6,1.4-1.4s-0.6-1.4-1.4-1.4s-1.4,0.6-1.4,1.4S730.5,443.5,731.3,443.5z"/>
				<path class="st6" d="M714,443.5c0.9,0,1.4-0.6,1.4-1.4s-0.6-1.4-1.4-1.4c-0.9,0-1.4,0.6-1.4,1.4S713.1,443.5,714,443.5z"/>
				<path class="st6" d="M870.5,426.1c0.9,0,1.4-0.6,1.4-1.4c0-0.9-0.6-1.4-1.4-1.4c-0.9,0-1.4,0.6-1.4,1.4
					C869,425.5,869.6,426.1,870.5,426.1z"/>
				<path class="st6" d="M853.1,426.1c0.9,0,1.4-0.6,1.4-1.4c0-0.9-0.6-1.4-1.4-1.4c-0.9,0-1.4,0.6-1.4,1.4
					C851.6,425.5,852.2,426.1,853.1,426.1z"/>
				<path class="st6" d="M835.7,426.1c0.9,0,1.4-0.6,1.4-1.4c0-0.9-0.6-1.4-1.4-1.4c-0.9,0-1.4,0.6-1.4,1.4
					C834.2,425.5,834.8,426.1,835.7,426.1z"/>
				<path class="st6" d="M818.3,426.1c0.9,0,1.4-0.6,1.4-1.4c0-0.9-0.6-1.4-1.4-1.4s-1.4,0.6-1.4,1.4
					C816.9,425.5,817.4,426.1,818.3,426.1z"/>
				<path class="st6" d="M800.9,426.1c0.9,0,1.4-0.6,1.4-1.4c0-0.9-0.6-1.4-1.4-1.4s-1.4,0.6-1.4,1.4
					C799.5,425.5,800,426.1,800.9,426.1z"/>
				<path class="st6" d="M783.5,426.1c0.9,0,1.4-0.6,1.4-1.4c0-0.9-0.6-1.4-1.4-1.4s-1.4,0.6-1.4,1.4
					C782.1,425.5,782.6,426.1,783.5,426.1z"/>
				<path class="st6" d="M766.1,426.1c0.9,0,1.4-0.6,1.4-1.4c0-0.9-0.6-1.4-1.4-1.4s-1.4,0.6-1.4,1.4
					C764.7,425.5,765.3,426.1,766.1,426.1z"/>
				<path class="st6" d="M748.7,426.1c0.9,0,1.4-0.6,1.4-1.4c0-0.9-0.6-1.4-1.4-1.4s-1.4,0.6-1.4,1.4
					C747.3,425.5,747.9,426.1,748.7,426.1z"/>
				<path class="st6" d="M731.3,426.1c0.9,0,1.4-0.6,1.4-1.4c0-0.9-0.6-1.4-1.4-1.4s-1.4,0.6-1.4,1.4
					C729.9,425.5,730.5,426.1,731.3,426.1z"/>
				<path class="st6" d="M714,426.1c0.9,0,1.4-0.6,1.4-1.4c0-0.9-0.6-1.4-1.4-1.4c-0.9,0-1.4,0.6-1.4,1.4
					C712.5,425.5,713.1,426.1,714,426.1z"/>
				<path class="st6" d="M870.5,408.7c0.9,0,1.4-0.6,1.4-1.4s-0.6-1.4-1.4-1.4c-0.9,0-1.4,0.6-1.4,1.4S869.6,408.7,870.5,408.7z"/>
				<path class="st6" d="M853.1,408.7c0.9,0,1.4-0.6,1.4-1.4s-0.6-1.4-1.4-1.4c-0.9,0-1.4,0.6-1.4,1.4S852.2,408.7,853.1,408.7z"/>
				<path class="st6" d="M835.7,408.7c0.9,0,1.4-0.6,1.4-1.4s-0.6-1.4-1.4-1.4c-0.9,0-1.4,0.6-1.4,1.4S834.8,408.7,835.7,408.7z"/>
				<path class="st6" d="M818.3,408.7c0.9,0,1.4-0.6,1.4-1.4s-0.6-1.4-1.4-1.4s-1.4,0.6-1.4,1.4S817.4,408.7,818.3,408.7z"/>
				<path class="st6" d="M800.9,408.7c0.9,0,1.4-0.6,1.4-1.4s-0.6-1.4-1.4-1.4s-1.4,0.6-1.4,1.4S800,408.7,800.9,408.7z"/>
				<path class="st6" d="M783.5,408.7c0.9,0,1.4-0.6,1.4-1.4s-0.6-1.4-1.4-1.4s-1.4,0.6-1.4,1.4S782.6,408.7,783.5,408.7z"/>
				<path class="st6" d="M766.1,408.7c0.9,0,1.4-0.6,1.4-1.4s-0.6-1.4-1.4-1.4s-1.4,0.6-1.4,1.4S765.3,408.7,766.1,408.7z"/>
				<path class="st6" d="M748.7,408.7c0.9,0,1.4-0.6,1.4-1.4s-0.6-1.4-1.4-1.4s-1.4,0.6-1.4,1.4S747.9,408.7,748.7,408.7z"/>
				<path class="st6" d="M731.3,408.7c0.9,0,1.4-0.6,1.4-1.4s-0.6-1.4-1.4-1.4s-1.4,0.6-1.4,1.4S730.5,408.7,731.3,408.7z"/>
				<path class="st6" d="M714,408.7c0.9,0,1.4-0.6,1.4-1.4s-0.6-1.4-1.4-1.4c-0.9,0-1.4,0.6-1.4,1.4S713.1,408.7,714,408.7z"/>
				<path class="st6" d="M642.9,76.8c0.9,0,1.4-0.6,1.4-1.4c0-0.9-0.6-1.4-1.4-1.4s-1.4,0.6-1.4,1.4
					C641.5,76.2,642.1,76.8,642.9,76.8z"/>
				<path class="st6" d="M625.5,76.8c0.9,0,1.4-0.6,1.4-1.4c0-0.9-0.6-1.4-1.4-1.4s-1.4,0.6-1.4,1.4
					C624.1,76.2,624.7,76.8,625.5,76.8z"/>
				<path class="st6" d="M608.2,76.8c0.9,0,1.4-0.6,1.4-1.4c0-0.9-0.6-1.4-1.4-1.4s-1.4,0.6-1.4,1.4
					C606.7,76.2,607.3,76.8,608.2,76.8z"/>
				<path class="st6" d="M590.8,76.8c0.9,0,1.4-0.6,1.4-1.4c0-0.9-0.6-1.4-1.4-1.4s-1.4,0.6-1.4,1.4
					C589.3,76.2,589.9,76.8,590.8,76.8z"/>
				<path class="st6" d="M573.4,76.8c0.9,0,1.4-0.6,1.4-1.4c0-0.9-0.6-1.4-1.4-1.4c-0.9,0-1.4,0.6-1.4,1.4
					C571.9,76.2,572.5,76.8,573.4,76.8z"/>
				<path class="st6" d="M642.9,59.4c0.9,0,1.4-0.6,1.4-1.4c0-0.9-0.6-1.4-1.4-1.4s-1.4,0.6-1.4,1.4
					C641.5,58.8,642.1,59.4,642.9,59.4z"/>
				<path class="st6" d="M625.5,59.4c0.9,0,1.4-0.6,1.4-1.4c0-0.9-0.6-1.4-1.4-1.4s-1.4,0.6-1.4,1.4
					C624.1,58.8,624.7,59.4,625.5,59.4z"/>
				<path class="st6" d="M608.2,59.4c0.9,0,1.4-0.6,1.4-1.4c0-0.9-0.6-1.4-1.4-1.4s-1.4,0.6-1.4,1.4
					C606.7,58.8,607.3,59.4,608.2,59.4z"/>
				<path class="st6" d="M590.8,59.4c0.9,0,1.4-0.6,1.4-1.4c0-0.9-0.6-1.4-1.4-1.4s-1.4,0.6-1.4,1.4
					C589.3,58.8,589.9,59.4,590.8,59.4z"/>
				<path class="st6" d="M573.4,59.4c0.9,0,1.4-0.6,1.4-1.4c0-0.9-0.6-1.4-1.4-1.4c-0.9,0-1.4,0.6-1.4,1.4
					C571.9,58.8,572.5,59.4,573.4,59.4z"/>
				<path class="st6" d="M642.9,42c0.9,0,1.4-0.6,1.4-1.4c0-0.9-0.6-1.4-1.4-1.4s-1.4,0.6-1.4,1.4C641.5,41.4,642.1,42,642.9,42z"/>
				<path class="st6" d="M625.5,42c0.9,0,1.4-0.6,1.4-1.4c0-0.9-0.6-1.4-1.4-1.4s-1.4,0.6-1.4,1.4C624.1,41.4,624.7,42,625.5,42z"/>
				<path class="st6" d="M608.2,42c0.9,0,1.4-0.6,1.4-1.4c0-0.9-0.6-1.4-1.4-1.4s-1.4,0.6-1.4,1.4C606.7,41.4,607.3,42,608.2,42z"/>
				<path class="st6" d="M590.8,42c0.9,0,1.4-0.6,1.4-1.4c0-0.9-0.6-1.4-1.4-1.4s-1.4,0.6-1.4,1.4C589.3,41.4,589.9,42,590.8,42z"/>
				<path class="st6" d="M573.4,42c0.9,0,1.4-0.6,1.4-1.4c0-0.9-0.6-1.4-1.4-1.4c-0.9,0-1.4,0.6-1.4,1.4
					C571.9,41.4,572.5,42,573.4,42z"/>
				<path class="st6" d="M642.9,24.6c0.9,0,1.4-0.6,1.4-1.4s-0.6-1.4-1.4-1.4s-1.4,0.6-1.4,1.4S642.1,24.6,642.9,24.6z"/>
				<path class="st6" d="M625.5,24.6c0.9,0,1.4-0.6,1.4-1.4s-0.6-1.4-1.4-1.4s-1.4,0.6-1.4,1.4S624.7,24.6,625.5,24.6z"/>
				<path class="st6" d="M608.2,24.6c0.9,0,1.4-0.6,1.4-1.4s-0.6-1.4-1.4-1.4s-1.4,0.6-1.4,1.4S607.3,24.6,608.2,24.6z"/>
				<path class="st6" d="M590.8,24.6c0.9,0,1.4-0.6,1.4-1.4s-0.6-1.4-1.4-1.4s-1.4,0.6-1.4,1.4S589.9,24.6,590.8,24.6z"/>
				<path class="st6" d="M642.9,7.2c0.9,0,1.4-0.6,1.4-1.4s-0.6-1.4-1.4-1.4s-1.4,0.6-1.4,1.4S642.1,7.2,642.9,7.2z"/>
				<path class="st6" d="M625.5,7.2c0.9,0,1.4-0.6,1.4-1.4s-0.6-1.4-1.4-1.4s-1.4,0.6-1.4,1.4S624.7,7.2,625.5,7.2z"/>
				<path class="st6" d="M608.2,7.2c0.9,0,1.4-0.6,1.4-1.4s-0.6-1.4-1.4-1.4s-1.4,0.6-1.4,1.4S607.3,7.2,608.2,7.2z"/>
				<path class="st6" d="M590.8,7.2c0.9,0,1.4-0.6,1.4-1.4s-0.6-1.4-1.4-1.4s-1.4,0.6-1.4,1.4S589.9,7.2,590.8,7.2z"/>
			</g>
		</g>
		<g>
			<path class="st2" d="M48.1,446.1c2.9-0.9,6.2-0.6,9,0.9s4.8,3.9,5.8,7c0.9,3,0.6,6.2-0.9,9c-1.4,2.8-3.9,4.8-7,5.8
				c-2.9,0.9-6.2,0.6-9-0.9s-4.8-3.9-5.8-7c-0.9-2.9-0.6-6.2,0.9-9C42.8,449.1,45.2,447,48.1,446.1z M54.5,466.5
				c2.5-0.7,4.5-2.5,5.8-4.8c1.2-2.3,1.4-4.9,0.7-7.4c-0.7-2.5-2.5-4.5-4.8-5.8c-2.3-1.2-4.9-1.4-7.4-0.7c-2.5,0.7-4.5,2.5-5.8,4.8
				c-1.2,2.3-1.4,4.9-0.7,7.4c0.7,2.5,2.5,4.5,4.8,5.8C49.4,467.1,52.1,467.4,54.5,466.5z"/>
			<path class="st3" d="M123.2,113.2c2-0.6,4.3-0.4,6.4,0.6c2,1,3.3,2.8,4.1,4.9c0.6,2,0.4,4.3-0.6,6.4c-1,1.9-2.8,3.3-4.9,4.1
				c-2,0.6-4.3,0.4-6.4-0.6c-1.9-1-3.3-2.8-4.1-4.9c-0.6-2-0.4-4.3,0.6-6.4S121.2,113.9,123.2,113.2z M127.7,127.7
				c1.7-0.6,3.2-1.7,4.1-3.3c0.9-1.6,1-3.5,0.4-5.2c-0.6-1.7-1.7-3.2-3.3-4.1c-1.6-0.9-3.5-1-5.2-0.4c-1.7,0.6-3.2,1.7-4.1,3.3
				c-0.9,1.6-1,3.5-0.4,5.2c0.6,1.7,1.7,3.2,3.3,4.1C124.1,128.1,126,128.3,127.7,127.7L127.7,127.7z"/>
			<path class="st4" d="M221,69.7l14.3,7.5l-7.5,14.3l-14.3-7.5L221,69.7z M232.8,78.3l-10.9-5.8l-5.8,10.9l10.9,5.8L232.8,78.3z"/>
			<path class="st3" d="M79,375.5l14.3,7.5l-7.5,14.3l-14.3-7.5L79,375.5z M90.8,384.1l-10.9-5.8l-5.8,10.9l10.9,5.8L90.8,384.1z"/>
			<path class="st5" d="M189.3,376.5c2-0.6,4.8,0.3,7.2,1.3c2.6,1,5.7,2.2,6.8,0.7l1.4,1.3c-2.2,2.3-5.7,1-9-0.3
				c-2.8-1-5.7-2.2-6.8-0.7c-1.3,1.3,0,4.2,1.3,6.8c1.4,3.3,3,6.7,0.9,9c-2.2,2.3-5.7,1-9-0.3c-2.8-1-5.7-2.2-6.8-0.7
				c-1.3,1.3,0,4.2,1.3,6.8c1.4,3.3,3,6.7,0.9,9c-2.2,2.3-5.7,1-9-0.3c-2.8-1-5.7-2.2-6.8-0.7c-1.3,1.3,0,4.2,1.3,6.8
				c1.4,3.3,3,6.7,0.9,9c-2.2,2.3-5.7,1-9-0.3c-2.8-1-5.7-2.2-6.8-0.7l-1.4-1.3c0.4-0.6,1-0.9,1.7-1.2c2-0.6,4.8,0.3,7.2,1.3
				c2.6,1,5.7,2.2,6.8,0.7c1.2-1.4,0-4.2-1.3-6.8c-1.4-3.3-3-6.7-0.9-9c2.2-2.3,5.7-1,9,0.3c2.8,1,5.7,2,7,0.7s0-4.2-1.3-6.8
				c-1.4-3.3-3-6.7-0.9-9c2.2-2.3,5.7-1,9,0.3c2.8,1,5.7,2.2,6.8,0.7c1.3-1.3,0-4.1-1.3-6.8c-1.4-3.3-3-6.7-0.9-9
				C188,377.1,188.6,376.8,189.3,376.5L189.3,376.5z"/>
			<path class="st3" d="M21.9,111.3c1.7-0.6,3.3,0.3,5.1,1c1.7,0.7,3.6,1.7,4.9,0.6l0.7,1c-2.2,1.9-4.5,0.9-6.5-0.1
				c-1.7-0.9-3.6-1.7-4.9-0.6s-0.9,3.5-0.6,5.5c0.3,2.6,0.7,5.5-1.4,7.4c-2.2,1.9-4.5,0.9-6.5-0.1c-1.7-0.9-3.6-1.7-4.9-0.6
				s-0.9,3.5-0.6,5.7c0.3,2.6,0.7,5.5-1.4,7.4s-4.5,0.9-6.5-0.1c-1.7-0.9-3.6-1.7-4.9-0.6c-1.3,1.2-0.9,3.5-0.6,5.7
				c0.3,2.6,0.7,5.5-1.4,7.4s-4.5,0.9-6.5-0.1c-1.7-0.9-3.6-1.7-4.9-0.6l-0.7-1c0.4-0.4,1-0.7,1.4-0.9c1.7-0.6,3.3,0.3,5.1,1
				c1.6,0.7,3.6,1.7,4.9,0.6s0.9-3.5,0.7-5.7c-0.3-2.6-0.7-5.5,1.4-7.4c2.2-1.9,4.5-0.9,6.5,0.1c1.7,0.9,3.6,1.7,4.9,0.6
				s0.9-3.5,0.6-5.7c-0.3-2.6-0.7-5.5,1.4-7.4c2.2-1.9,4.5-0.9,6.5,0.1c1.7,0.9,3.6,1.7,4.9,0.6c1.3-1.2,0.9-3.5,0.6-5.7
				c-0.3-2.6-0.7-5.5,1.4-7.4C20.9,111.7,21.3,111.4,21.9,111.3z"/>
			<g>
				<path class="st6" d="M-49.1,1.4c-0.9,0-1.4,0.6-1.4,1.4s0.6,1.4,1.4,1.4s1.4-0.6,1.4-1.4S-48.2,1.4-49.1,1.4z"/>
				<path class="st6" d="M-31.7,1.4c-0.9,0-1.4,0.6-1.4,1.4s0.6,1.4,1.4,1.4s1.4-0.6,1.4-1.4S-30.8,1.4-31.7,1.4z"/>
				<path class="st6" d="M-14.3,1.4c-0.9,0-1.4,0.6-1.4,1.4s0.6,1.4,1.4,1.4c0.9,0,1.4-0.6,1.4-1.4S-13.5,1.4-14.3,1.4z"/>
				<path class="st6" d="M3.1,1.4C2.2,1.4,1.6,2,1.6,2.9s0.6,1.4,1.4,1.4s1.4-0.6,1.4-1.4S3.9,1.4,3.1,1.4z"/>
				<path class="st6" d="M20.5,1.4C19.6,1.4,19,2,19,2.9s0.6,1.4,1.4,1.4s1.4-0.6,1.4-1.4S21.3,1.4,20.5,1.4z"/>
				<path class="st6" d="M37.9,1.4c-0.9,0-1.4,0.6-1.4,1.4s0.6,1.4,1.4,1.4c0.9,0,1.4-0.6,1.4-1.4S38.7,1.4,37.9,1.4z"/>
				<path class="st6" d="M55.2,1.4c-0.9,0-1.4,0.6-1.4,1.4s0.6,1.4,1.4,1.4c0.9,0,1.4-0.6,1.4-1.4S56.1,1.4,55.2,1.4z"/>
				<path class="st6" d="M72.6,1.4c-0.9,0-1.4,0.6-1.4,1.4s0.6,1.4,1.4,1.4s1.4-0.6,1.4-1.4S73.5,1.4,72.6,1.4z"/>
				<path class="st6" d="M90,1.4c-0.9,0-1.4,0.6-1.4,1.4s0.6,1.4,1.4,1.4s1.4-0.6,1.4-1.4S90.9,1.4,90,1.4z"/>
				<path class="st6" d="M107.4,1.4c-0.9,0-1.4,0.6-1.4,1.4s0.6,1.4,1.4,1.4s1.4-0.6,1.4-1.4S108.3,1.4,107.4,1.4z"/>
				<path class="st6" d="M-49.1,18.8c-0.9,0-1.4,0.6-1.4,1.4c0,0.9,0.6,1.4,1.4,1.4s1.4-0.6,1.4-1.4C-47.7,19.4-48.2,18.8-49.1,18.8
					z"/>
				<path class="st6" d="M-31.7,18.8c-0.9,0-1.4,0.6-1.4,1.4c0,0.9,0.6,1.4,1.4,1.4s1.4-0.6,1.4-1.4C-30.3,19.4-30.8,18.8-31.7,18.8
					z"/>
				<path class="st6" d="M-14.3,18.8c-0.9,0-1.4,0.6-1.4,1.4c0,0.9,0.6,1.4,1.4,1.4c0.9,0,1.4-0.6,1.4-1.4
					C-12.9,19.4-13.5,18.8-14.3,18.8z"/>
				<path class="st6" d="M3.1,18.8c-0.9,0-1.4,0.6-1.4,1.4c0,0.9,0.6,1.4,1.4,1.4s1.4-0.6,1.4-1.4C4.5,19.4,3.9,18.8,3.1,18.8z"/>
				<path class="st6" d="M20.5,18.8c-0.9,0-1.4,0.6-1.4,1.4c0,0.9,0.6,1.4,1.4,1.4s1.4-0.6,1.4-1.4C21.9,19.4,21.3,18.8,20.5,18.8z"
					/>
				<path class="st6" d="M37.9,18.8c-0.9,0-1.4,0.6-1.4,1.4c0,0.9,0.6,1.4,1.4,1.4c0.9,0,1.4-0.6,1.4-1.4
					C39.3,19.4,38.7,18.8,37.9,18.8z"/>
				<path class="st6" d="M55.2,18.8c-0.9,0-1.4,0.6-1.4,1.4c0,0.9,0.6,1.4,1.4,1.4c0.9,0,1.4-0.6,1.4-1.4
					C56.7,19.4,56.1,18.8,55.2,18.8z"/>
				<path class="st6" d="M72.6,18.8c-0.9,0-1.4,0.6-1.4,1.4c0,0.9,0.6,1.4,1.4,1.4s1.4-0.6,1.4-1.4C74.1,19.4,73.5,18.8,72.6,18.8z"
					/>
				<path class="st6" d="M90,18.8c-0.9,0-1.4,0.6-1.4,1.4c0,0.9,0.6,1.4,1.4,1.4s1.4-0.6,1.4-1.4C91.5,19.4,90.9,18.8,90,18.8z"/>
				<path class="st6" d="M107.4,18.8c-0.9,0-1.4,0.6-1.4,1.4c0,0.9,0.6,1.4,1.4,1.4s1.4-0.6,1.4-1.4
					C108.9,19.4,108.3,18.8,107.4,18.8z"/>
				<path class="st6" d="M-49.1,36.2c-0.9,0-1.4,0.6-1.4,1.4c0,0.9,0.6,1.4,1.4,1.4s1.4-0.6,1.4-1.4C-47.7,36.8-48.2,36.2-49.1,36.2
					z"/>
				<path class="st6" d="M-31.7,36.2c-0.9,0-1.4,0.6-1.4,1.4c0,0.9,0.6,1.4,1.4,1.4s1.4-0.6,1.4-1.4C-30.3,36.8-30.8,36.2-31.7,36.2
					z"/>
				<path class="st6" d="M-14.3,36.2c-0.9,0-1.4,0.6-1.4,1.4c0,0.9,0.6,1.4,1.4,1.4c0.9,0,1.4-0.6,1.4-1.4
					C-12.9,36.8-13.5,36.2-14.3,36.2z"/>
				<path class="st6" d="M3.1,36.2c-0.9,0-1.4,0.6-1.4,1.4c0,0.9,0.6,1.4,1.4,1.4s1.4-0.6,1.4-1.4C4.5,36.8,3.9,36.2,3.1,36.2z"/>
				<path class="st6" d="M20.5,36.2c-0.9,0-1.4,0.6-1.4,1.4c0,0.9,0.6,1.4,1.4,1.4s1.4-0.6,1.4-1.4C21.9,36.8,21.3,36.2,20.5,36.2z"
					/>
				<path class="st6" d="M37.9,36.2c-0.9,0-1.4,0.6-1.4,1.4c0,0.9,0.6,1.4,1.4,1.4c0.9,0,1.4-0.6,1.4-1.4
					C39.3,36.8,38.7,36.2,37.9,36.2z"/>
				<path class="st6" d="M55.2,36.2c-0.9,0-1.4,0.6-1.4,1.4c0,0.9,0.6,1.4,1.4,1.4c0.9,0,1.4-0.6,1.4-1.4
					C56.7,36.8,56.1,36.2,55.2,36.2z"/>
				<path class="st6" d="M72.6,36.2c-0.9,0-1.4,0.6-1.4,1.4c0,0.9,0.6,1.4,1.4,1.4s1.4-0.6,1.4-1.4C74.1,36.8,73.5,36.2,72.6,36.2z"
					/>
				<path class="st6" d="M90,36.2c-0.9,0-1.4,0.6-1.4,1.4c0,0.9,0.6,1.4,1.4,1.4s1.4-0.6,1.4-1.4C91.5,36.8,90.9,36.2,90,36.2z"/>
				<path class="st6" d="M107.4,36.2c-0.9,0-1.4,0.6-1.4,1.4c0,0.9,0.6,1.4,1.4,1.4s1.4-0.6,1.4-1.4
					C108.9,36.8,108.3,36.2,107.4,36.2z"/>
				<path class="st6" d="M-49.1,53.6c-0.9,0-1.4,0.6-1.4,1.4s0.6,1.4,1.4,1.4s1.4-0.6,1.4-1.4S-48.2,53.6-49.1,53.6z"/>
				<path class="st6" d="M-31.7,53.6c-0.9,0-1.4,0.6-1.4,1.4s0.6,1.4,1.4,1.4s1.4-0.6,1.4-1.4S-30.8,53.6-31.7,53.6z"/>
				<path class="st6" d="M-14.3,53.6c-0.9,0-1.4,0.6-1.4,1.4s0.6,1.4,1.4,1.4c0.9,0,1.4-0.6,1.4-1.4S-13.5,53.6-14.3,53.6z"/>
				<path class="st6" d="M3.1,53.6c-0.9,0-1.4,0.6-1.4,1.4s0.6,1.4,1.4,1.4s1.4-0.6,1.4-1.4S3.9,53.6,3.1,53.6z"/>
				<path class="st6" d="M20.5,53.6c-0.9,0-1.4,0.6-1.4,1.4s0.6,1.4,1.4,1.4s1.4-0.6,1.4-1.4S21.3,53.6,20.5,53.6z"/>
				<path class="st6" d="M37.9,53.6c-0.9,0-1.4,0.6-1.4,1.4s0.6,1.4,1.4,1.4c0.9,0,1.4-0.6,1.4-1.4S38.7,53.6,37.9,53.6z"/>
				<path class="st6" d="M55.2,53.6c-0.9,0-1.4,0.6-1.4,1.4s0.6,1.4,1.4,1.4c0.9,0,1.4-0.6,1.4-1.4S56.1,53.6,55.2,53.6z"/>
				<path class="st6" d="M72.6,53.6c-0.9,0-1.4,0.6-1.4,1.4s0.6,1.4,1.4,1.4s1.4-0.6,1.4-1.4S73.5,53.6,72.6,53.6z"/>
				<path class="st6" d="M90,53.6c-0.9,0-1.4,0.6-1.4,1.4s0.6,1.4,1.4,1.4s1.4-0.6,1.4-1.4S90.9,53.6,90,53.6z"/>
				<path class="st6" d="M107.4,53.6c-0.9,0-1.4,0.6-1.4,1.4s0.6,1.4,1.4,1.4s1.4-0.6,1.4-1.4S108.3,53.6,107.4,53.6z"/>
				<path class="st6" d="M-49.1,71c-0.9,0-1.4,0.6-1.4,1.4s0.6,1.4,1.4,1.4s1.4-0.6,1.4-1.4S-48.2,71-49.1,71z"/>
				<path class="st6" d="M-31.7,71c-0.9,0-1.4,0.6-1.4,1.4s0.6,1.4,1.4,1.4s1.4-0.6,1.4-1.4S-30.8,71-31.7,71z"/>
				<path class="st6" d="M-14.3,71c-0.9,0-1.4,0.6-1.4,1.4s0.6,1.4,1.4,1.4c0.9,0,1.4-0.6,1.4-1.4S-13.5,71-14.3,71z"/>
				<path class="st6" d="M3.1,71c-0.9,0-1.4,0.6-1.4,1.4s0.6,1.4,1.4,1.4s1.4-0.6,1.4-1.4S3.9,71,3.1,71z"/>
				<path class="st6" d="M20.5,71c-0.9,0-1.4,0.6-1.4,1.4s0.6,1.4,1.4,1.4s1.4-0.6,1.4-1.4S21.3,71,20.5,71z"/>
				<path class="st6" d="M37.9,71c-0.9,0-1.4,0.6-1.4,1.4s0.6,1.4,1.4,1.4c0.9,0,1.4-0.6,1.4-1.4S38.7,71,37.9,71z"/>
				<path class="st6" d="M55.2,71c-0.9,0-1.4,0.6-1.4,1.4s0.6,1.4,1.4,1.4c0.9,0,1.4-0.6,1.4-1.4S56.1,71,55.2,71z"/>
				<path class="st6" d="M72.6,71c-0.9,0-1.4,0.6-1.4,1.4s0.6,1.4,1.4,1.4s1.4-0.6,1.4-1.4S73.5,71,72.6,71z"/>
				<path class="st6" d="M90,71c-0.9,0-1.4,0.6-1.4,1.4s0.6,1.4,1.4,1.4s1.4-0.6,1.4-1.4S90.9,71,90,71z"/>
				<path class="st6" d="M107.4,71c-0.9,0-1.4,0.6-1.4,1.4s0.6,1.4,1.4,1.4s1.4-0.6,1.4-1.4S108.3,71,107.4,71z"/>
				<path class="st6" d="M-49.1,88.4c-0.9,0-1.4,0.6-1.4,1.4s0.6,1.4,1.4,1.4s1.4-0.6,1.4-1.4S-48.2,88.4-49.1,88.4z"/>
				<path class="st6" d="M-31.7,88.4c-0.9,0-1.4,0.6-1.4,1.4s0.6,1.4,1.4,1.4s1.4-0.6,1.4-1.4S-30.8,88.4-31.7,88.4z"/>
				<path class="st6" d="M-14.3,88.4c-0.9,0-1.4,0.6-1.4,1.4s0.6,1.4,1.4,1.4c0.9,0,1.4-0.6,1.4-1.4S-13.5,88.4-14.3,88.4z"/>
				<path class="st6" d="M3.1,88.4c-0.9,0-1.4,0.6-1.4,1.4s0.6,1.4,1.4,1.4s1.4-0.6,1.4-1.4S3.9,88.4,3.1,88.4z"/>
				<path class="st6" d="M20.5,88.4c-0.9,0-1.4,0.6-1.4,1.4s0.6,1.4,1.4,1.4s1.4-0.6,1.4-1.4S21.3,88.4,20.5,88.4z"/>
				<path class="st6" d="M37.9,88.4c-0.9,0-1.4,0.6-1.4,1.4s0.6,1.4,1.4,1.4c0.9,0,1.4-0.6,1.4-1.4S38.7,88.4,37.9,88.4z"/>
				<path class="st6" d="M55.2,88.4c-0.9,0-1.4,0.6-1.4,1.4s0.6,1.4,1.4,1.4c0.9,0,1.4-0.6,1.4-1.4S56.1,88.4,55.2,88.4z"/>
				<path class="st6" d="M72.6,88.4c-0.9,0-1.4,0.6-1.4,1.4s0.6,1.4,1.4,1.4s1.4-0.6,1.4-1.4S73.5,88.4,72.6,88.4z"/>
				<path class="st6" d="M90,88.4c-0.9,0-1.4,0.6-1.4,1.4s0.6,1.4,1.4,1.4s1.4-0.6,1.4-1.4S90.9,88.4,90,88.4z"/>
				<path class="st6" d="M107.4,88.4c-0.9,0-1.4,0.6-1.4,1.4s0.6,1.4,1.4,1.4s1.4-0.6,1.4-1.4S108.3,88.4,107.4,88.4z"/>
				<path class="st6" d="M178.4,420.3c-0.9,0-1.4,0.6-1.4,1.4s0.6,1.4,1.4,1.4c0.9,0,1.4-0.6,1.4-1.4S179.3,420.3,178.4,420.3z"/>
				<path class="st6" d="M195.8,420.3c-0.9,0-1.4,0.6-1.4,1.4s0.6,1.4,1.4,1.4s1.4-0.6,1.4-1.4S196.7,420.3,195.8,420.3z"/>
				<path class="st6" d="M213.2,420.3c-0.9,0-1.4,0.6-1.4,1.4s0.6,1.4,1.4,1.4c0.9,0,1.4-0.6,1.4-1.4S214.1,420.3,213.2,420.3z"/>
				<path class="st6" d="M230.6,420.3c-0.9,0-1.4,0.6-1.4,1.4s0.6,1.4,1.4,1.4s1.4-0.6,1.4-1.4S231.5,420.3,230.6,420.3z"/>
				<path class="st6" d="M248,420.3c-0.9,0-1.4,0.6-1.4,1.4s0.6,1.4,1.4,1.4c0.9,0,1.4-0.6,1.4-1.4S248.9,420.3,248,420.3z"/>
				<path class="st6" d="M178.4,437.7c-0.9,0-1.4,0.6-1.4,1.4s0.6,1.4,1.4,1.4c0.9,0,1.4-0.6,1.4-1.4S179.3,437.7,178.4,437.7z"/>
				<path class="st6" d="M195.8,437.7c-0.9,0-1.4,0.6-1.4,1.4s0.6,1.4,1.4,1.4s1.4-0.6,1.4-1.4S196.7,437.7,195.8,437.7z"/>
				<path class="st6" d="M213.2,437.7c-0.9,0-1.4,0.6-1.4,1.4s0.6,1.4,1.4,1.4c0.9,0,1.4-0.6,1.4-1.4S214.1,437.7,213.2,437.7z"/>
				<path class="st6" d="M230.6,437.7c-0.9,0-1.4,0.6-1.4,1.4s0.6,1.4,1.4,1.4s1.4-0.6,1.4-1.4S231.5,437.7,230.6,437.7z"/>
				<path class="st6" d="M248,437.7c-0.9,0-1.4,0.6-1.4,1.4s0.6,1.4,1.4,1.4c0.9,0,1.4-0.6,1.4-1.4S248.9,437.7,248,437.7z"/>
				<path class="st6" d="M178.4,455.1c-0.9,0-1.4,0.6-1.4,1.4s0.6,1.4,1.4,1.4c0.9,0,1.4-0.6,1.4-1.4S179.3,455.1,178.4,455.1z"/>
				<path class="st6" d="M195.8,455.1c-0.9,0-1.4,0.6-1.4,1.4s0.6,1.4,1.4,1.4s1.4-0.6,1.4-1.4S196.7,455.1,195.8,455.1z"/>
				<path class="st6" d="M213.2,455.1c-0.9,0-1.4,0.6-1.4,1.4s0.6,1.4,1.4,1.4c0.9,0,1.4-0.6,1.4-1.4S214.1,455.1,213.2,455.1z"/>
				<path class="st6" d="M230.6,455.1c-0.9,0-1.4,0.6-1.4,1.4s0.6,1.4,1.4,1.4s1.4-0.6,1.4-1.4S231.5,455.1,230.6,455.1z"/>
				<path class="st6" d="M248,455.1c-0.9,0-1.4,0.6-1.4,1.4s0.6,1.4,1.4,1.4c0.9,0,1.4-0.6,1.4-1.4S248.9,455.1,248,455.1z"/>
				<path class="st6" d="M178.4,472.5c-0.9,0-1.4,0.6-1.4,1.4s0.6,1.4,1.4,1.4c0.9,0,1.4-0.6,1.4-1.4S179.3,472.5,178.4,472.5z"/>
				<path class="st6" d="M195.8,472.5c-0.9,0-1.4,0.6-1.4,1.4s0.6,1.4,1.4,1.4s1.4-0.6,1.4-1.4S196.7,472.5,195.8,472.5z"/>
				<path class="st6" d="M213.2,472.5c-0.9,0-1.4,0.6-1.4,1.4s0.6,1.4,1.4,1.4c0.9,0,1.4-0.6,1.4-1.4S214.1,472.5,213.2,472.5z"/>
				<path class="st6" d="M230.6,472.5c-0.9,0-1.4,0.6-1.4,1.4s0.6,1.4,1.4,1.4s1.4-0.6,1.4-1.4S231.5,472.5,230.6,472.5z"/>
				<path class="st6" d="M178.4,489.9c-0.9,0-1.4,0.6-1.4,1.4s0.6,1.4,1.4,1.4c0.9,0,1.4-0.6,1.4-1.4S179.3,489.9,178.4,489.9z"/>
				<path class="st6" d="M195.8,489.9c-0.9,0-1.4,0.6-1.4,1.4s0.6,1.4,1.4,1.4s1.4-0.6,1.4-1.4S196.7,489.9,195.8,489.9z"/>
				<path class="st6" d="M213.2,489.9c-0.9,0-1.4,0.6-1.4,1.4s0.6,1.4,1.4,1.4c0.9,0,1.4-0.6,1.4-1.4S214.1,489.9,213.2,489.9z"/>
				<path class="st6" d="M230.6,489.9c-0.9,0-1.4,0.6-1.4,1.4s0.6,1.4,1.4,1.4s1.4-0.6,1.4-1.4S231.5,489.9,230.6,489.9z"/>
			</g>
		</g>
		<path class="st2" d="M329.8,389.6c2.9-0.9,6.2-0.6,9,0.9c2.8,1.4,4.8,3.9,5.8,7c0.9,3,0.6,6.2-0.9,9s-3.9,4.8-7,5.8
			c-2.9,0.9-6.2,0.6-9-0.9s-4.8-3.9-5.8-7c-0.9-2.9-0.6-6.2,0.9-9C324.5,392.6,326.9,390.5,329.8,389.6z M336.2,410
			c2.5-0.7,4.5-2.5,5.8-4.8c1.2-2.3,1.4-4.9,0.7-7.4s-2.5-4.5-4.8-5.8c-2.3-1.2-4.9-1.4-7.4-0.7c-2.5,0.7-4.5,2.5-5.8,4.8
			c-1.2,2.3-1.4,4.9-0.7,7.4c0.7,2.5,2.5,4.5,4.8,5.8C331.1,410.6,333.7,410.9,336.2,410z"/>
		<path class="st3" d="M470,199.6c2-0.6,4.3-0.4,6.4,0.6c2,1,3.3,2.8,4.1,4.9c0.6,2,0.4,4.3-0.6,6.4c-1,1.9-2.8,3.3-4.9,4.1
			c-2,0.6-4.3,0.4-6.4-0.6c-1.9-1-3.3-2.8-4.1-4.9c-0.6-2-0.4-4.3,0.6-6.4S467.9,200.3,470,199.6z M474.5,214.1
			c1.7-0.6,3.2-1.7,4.1-3.3c0.9-1.6,1-3.5,0.4-5.2s-1.7-3.2-3.3-4.1c-1.6-0.9-3.5-1-5.2-0.4c-1.7,0.6-3.2,1.7-4.1,3.3
			c-0.9,1.6-1,3.5-0.4,5.2c0.6,1.7,1.7,3.2,3.3,4.1C470.8,214.5,472.7,214.7,474.5,214.1L474.5,214.1z"/>
		<path class="st4" d="M539,72.6l14.3,7.5l-7.5,14.3L531.4,87L539,72.6z M550.7,81.2l-10.9-5.8L534,86.2l10.9,5.8L550.7,81.2z"/>
		<path class="st3" d="M437.2,354.7l14.3,7.5l-7.5,14.3l-14.3-7.5L437.2,354.7z M448.9,363.3l-10.9-5.8l-5.8,10.9l10.9,5.8
			L448.9,363.3z"/>
		<path class="st5" d="M523.4,404c2-0.6,4.8,0.3,7.2,1.3c2.6,1,5.7,2.2,6.8,0.7l1.4,1.3c-2.2,2.3-5.7,1-9-0.3
			c-2.8-1-5.7-2.2-6.8-0.7c-1.3,1.3,0,4.2,1.3,6.8c1.4,3.3,3,6.7,0.9,9s-5.7,1-9-0.3c-2.8-1-5.7-2.2-6.8-0.7c-1.3,1.3,0,4.2,1.3,6.8
			c1.4,3.3,3,6.7,0.9,9c-2.2,2.3-5.7,1-9-0.3c-2.8-1-5.7-2.2-6.8-0.7c-1.3,1.3,0,4.2,1.3,6.8c1.4,3.3,3,6.7,0.9,9s-5.7,1-9-0.3
			c-2.8-1-5.7-2.2-6.8-0.7l-1.4-1.3c0.4-0.6,1-0.9,1.7-1.2c2-0.6,4.8,0.3,7.2,1.3c2.6,1,5.7,2.2,6.8,0.7c1.2-1.4,0-4.2-1.3-6.8
			c-1.4-3.3-3-6.7-0.9-9c2.2-2.3,5.7-1,9,0.3c2.8,1,5.7,2,7,0.7s0-4.2-1.3-6.8c-1.4-3.3-3-6.7-0.9-9c2.2-2.3,5.7-1,9,0.3
			c2.8,1,5.7,2.2,6.8,0.7c1.3-1.3,0-4.1-1.3-6.8c-1.4-3.3-3-6.7-0.9-9C522.1,404.6,522.6,404.3,523.4,404L523.4,404z"/>
		<path class="st3" d="M380.6,56.7c1.7-0.6,3.3,0.3,5.1,1c1.7,0.7,3.6,1.7,4.9,0.6l0.7,1c-2.2,1.9-4.5,0.9-6.5-0.1
			c-1.7-0.9-3.6-1.7-4.9-0.6c-1.3,1.2-0.9,3.5-0.6,5.5c0.3,2.6,0.7,5.5-1.4,7.4c-2.2,1.9-4.5,0.9-6.5-0.1c-1.7-0.9-3.6-1.7-4.9-0.6
			c-1.3,1.2-0.9,3.5-0.6,5.7c0.3,2.6,0.7,5.5-1.4,7.4c-2.2,1.9-4.5,0.9-6.5-0.1c-1.7-0.9-3.6-1.7-4.9-0.6c-1.3,1.2-0.9,3.5-0.6,5.7
			c0.3,2.6,0.7,5.5-1.4,7.4c-2.2,1.9-4.5,0.9-6.5-0.1c-1.7-0.9-3.6-1.7-4.9-0.6l-0.7-1c0.4-0.4,1-0.7,1.4-0.9c1.7-0.6,3.3,0.3,5.1,1
			c1.6,0.7,3.6,1.7,4.9,0.6c1.3-1.2,0.9-3.5,0.7-5.7c-0.3-2.6-0.7-5.5,1.4-7.4c2.2-1.9,4.5-0.9,6.5,0.1c1.7,0.9,3.6,1.7,4.9,0.6
			c1.3-1.2,0.9-3.5,0.6-5.7c-0.3-2.6-0.7-5.5,1.4-7.4c2.2-1.9,4.5-0.9,6.5,0.1c1.7,0.9,3.6,1.7,4.9,0.6c1.3-1.2,0.9-3.5,0.6-5.7
			c-0.3-2.6-0.7-5.5,1.4-7.4C379.6,57.1,380,56.8,380.6,56.7z"/>
		<g>
			<path class="st6" d="M194.2,179c-0.9,0-1.4,0.6-1.4,1.4s0.6,1.4,1.4,1.4c0.9,0,1.4-0.6,1.4-1.4S195,179,194.2,179z"/>
			<path class="st6" d="M211.6,179c-0.9,0-1.4,0.6-1.4,1.4s0.6,1.4,1.4,1.4c0.9,0,1.4-0.6,1.4-1.4S212.4,179,211.6,179z"/>
			<path class="st6" d="M229,179c-0.9,0-1.4,0.6-1.4,1.4s0.6,1.4,1.4,1.4c0.9,0,1.4-0.6,1.4-1.4S229.8,179,229,179z"/>
			<path class="st6" d="M246.4,179c-0.9,0-1.4,0.6-1.4,1.4s0.6,1.4,1.4,1.4c0.9,0,1.4-0.6,1.4-1.4S247.2,179,246.4,179z"/>
			<path class="st6" d="M263.7,179c-0.9,0-1.4,0.6-1.4,1.4s0.6,1.4,1.4,1.4s1.4-0.6,1.4-1.4S264.6,179,263.7,179z"/>
			<path class="st6" d="M281.1,179c-0.9,0-1.4,0.6-1.4,1.4s0.6,1.4,1.4,1.4s1.4-0.6,1.4-1.4S282,179,281.1,179z"/>
			<path class="st6" d="M298.5,179c-0.9,0-1.4,0.6-1.4,1.4s0.6,1.4,1.4,1.4c0.9,0,1.4-0.6,1.4-1.4S299.4,179,298.5,179z"/>
			<path class="st6" d="M315.9,179c-0.9,0-1.4,0.6-1.4,1.4s0.6,1.4,1.4,1.4c0.9,0,1.4-0.6,1.4-1.4S316.8,179,315.9,179z"/>
			<path class="st6" d="M333.3,179c-0.9,0-1.4,0.6-1.4,1.4s0.6,1.4,1.4,1.4s1.4-0.6,1.4-1.4S334.2,179,333.3,179z"/>
			<path class="st6" d="M350.7,179c-0.9,0-1.4,0.6-1.4,1.4s0.6,1.4,1.4,1.4s1.4-0.6,1.4-1.4S351.6,179,350.7,179z"/>
			<path class="st6" d="M194.2,196.4c-0.9,0-1.4,0.6-1.4,1.4c0,0.9,0.6,1.4,1.4,1.4c0.9,0,1.4-0.6,1.4-1.4
				C195.6,197,195,196.4,194.2,196.4z"/>
			<path class="st6" d="M211.6,196.4c-0.9,0-1.4,0.6-1.4,1.4c0,0.9,0.6,1.4,1.4,1.4c0.9,0,1.4-0.6,1.4-1.4
				C213,197,212.4,196.4,211.6,196.4z"/>
			<path class="st6" d="M229,196.4c-0.9,0-1.4,0.6-1.4,1.4c0,0.9,0.6,1.4,1.4,1.4c0.9,0,1.4-0.6,1.4-1.4
				C230.4,197,229.8,196.4,229,196.4z"/>
			<path class="st6" d="M246.4,196.4c-0.9,0-1.4,0.6-1.4,1.4c0,0.9,0.6,1.4,1.4,1.4c0.9,0,1.4-0.6,1.4-1.4
				C247.8,197,247.2,196.4,246.4,196.4z"/>
			<path class="st6" d="M263.7,196.4c-0.9,0-1.4,0.6-1.4,1.4c0,0.9,0.6,1.4,1.4,1.4s1.4-0.6,1.4-1.4
				C265.2,197,264.6,196.4,263.7,196.4z"/>
			<path class="st6" d="M281.1,196.4c-0.9,0-1.4,0.6-1.4,1.4c0,0.9,0.6,1.4,1.4,1.4s1.4-0.6,1.4-1.4
				C282.6,197,282,196.4,281.1,196.4z"/>
			<path class="st6" d="M298.5,196.4c-0.9,0-1.4,0.6-1.4,1.4c0,0.9,0.6,1.4,1.4,1.4c0.9,0,1.4-0.6,1.4-1.4
				C300,197,299.4,196.4,298.5,196.4z"/>
			<path class="st6" d="M315.9,196.4c-0.9,0-1.4,0.6-1.4,1.4c0,0.9,0.6,1.4,1.4,1.4c0.9,0,1.4-0.6,1.4-1.4
				C317.4,197,316.8,196.4,315.9,196.4z"/>
			<path class="st6" d="M333.3,196.4c-0.9,0-1.4,0.6-1.4,1.4c0,0.9,0.6,1.4,1.4,1.4s1.4-0.6,1.4-1.4
				C334.8,197,334.2,196.4,333.3,196.4z"/>
			<path class="st6" d="M350.7,196.4c-0.9,0-1.4,0.6-1.4,1.4c0,0.9,0.6,1.4,1.4,1.4s1.4-0.6,1.4-1.4
				C352.2,197,351.6,196.4,350.7,196.4z"/>
			<path class="st6" d="M194.2,213.8c-0.9,0-1.4,0.6-1.4,1.4s0.6,1.4,1.4,1.4c0.9,0,1.4-0.6,1.4-1.4S195,213.8,194.2,213.8z"/>
			<path class="st6" d="M211.6,213.8c-0.9,0-1.4,0.6-1.4,1.4s0.6,1.4,1.4,1.4c0.9,0,1.4-0.6,1.4-1.4S212.4,213.8,211.6,213.8z"/>
			<path class="st6" d="M229,213.8c-0.9,0-1.4,0.6-1.4,1.4s0.6,1.4,1.4,1.4c0.9,0,1.4-0.6,1.4-1.4S229.8,213.8,229,213.8z"/>
			<path class="st6" d="M246.4,213.8c-0.9,0-1.4,0.6-1.4,1.4s0.6,1.4,1.4,1.4c0.9,0,1.4-0.6,1.4-1.4S247.2,213.8,246.4,213.8z"/>
			<path class="st6" d="M263.7,213.8c-0.9,0-1.4,0.6-1.4,1.4s0.6,1.4,1.4,1.4s1.4-0.6,1.4-1.4S264.6,213.8,263.7,213.8z"/>
			<path class="st6" d="M281.1,213.8c-0.9,0-1.4,0.6-1.4,1.4s0.6,1.4,1.4,1.4s1.4-0.6,1.4-1.4S282,213.8,281.1,213.8z"/>
			<path class="st6" d="M298.5,213.8c-0.9,0-1.4,0.6-1.4,1.4s0.6,1.4,1.4,1.4c0.9,0,1.4-0.6,1.4-1.4S299.4,213.8,298.5,213.8z"/>
			<path class="st6" d="M315.9,213.8c-0.9,0-1.4,0.6-1.4,1.4s0.6,1.4,1.4,1.4c0.9,0,1.4-0.6,1.4-1.4S316.8,213.8,315.9,213.8z"/>
			<path class="st6" d="M333.3,213.8c-0.9,0-1.4,0.6-1.4,1.4s0.6,1.4,1.4,1.4s1.4-0.6,1.4-1.4S334.2,213.8,333.3,213.8z"/>
			<path class="st6" d="M350.7,213.8c-0.9,0-1.4,0.6-1.4,1.4s0.6,1.4,1.4,1.4s1.4-0.6,1.4-1.4S351.6,213.8,350.7,213.8z"/>
			<path class="st6" d="M194.2,231.2c-0.9,0-1.4,0.6-1.4,1.4c0,0.9,0.6,1.4,1.4,1.4c0.9,0,1.4-0.6,1.4-1.4
				C195.6,231.7,195,231.2,194.2,231.2z"/>
			<path class="st6" d="M211.6,231.2c-0.9,0-1.4,0.6-1.4,1.4c0,0.9,0.6,1.4,1.4,1.4c0.9,0,1.4-0.6,1.4-1.4
				C213,231.7,212.4,231.2,211.6,231.2z"/>
			<path class="st6" d="M229,231.2c-0.9,0-1.4,0.6-1.4,1.4c0,0.9,0.6,1.4,1.4,1.4c0.9,0,1.4-0.6,1.4-1.4
				C230.4,231.7,229.8,231.2,229,231.2z"/>
			<path class="st6" d="M246.4,231.2c-0.9,0-1.4,0.6-1.4,1.4c0,0.9,0.6,1.4,1.4,1.4c0.9,0,1.4-0.6,1.4-1.4
				C247.8,231.7,247.2,231.2,246.4,231.2z"/>
			<path class="st6" d="M263.7,231.2c-0.9,0-1.4,0.6-1.4,1.4c0,0.9,0.6,1.4,1.4,1.4s1.4-0.6,1.4-1.4
				C265.2,231.7,264.6,231.2,263.7,231.2z"/>
			<path class="st6" d="M281.1,231.2c-0.9,0-1.4,0.6-1.4,1.4c0,0.9,0.6,1.4,1.4,1.4s1.4-0.6,1.4-1.4
				C282.6,231.7,282,231.2,281.1,231.2z"/>
			<path class="st6" d="M298.5,231.2c-0.9,0-1.4,0.6-1.4,1.4c0,0.9,0.6,1.4,1.4,1.4c0.9,0,1.4-0.6,1.4-1.4
				C300,231.7,299.4,231.2,298.5,231.2z"/>
			<path class="st6" d="M315.9,231.2c-0.9,0-1.4,0.6-1.4,1.4c0,0.9,0.6,1.4,1.4,1.4c0.9,0,1.4-0.6,1.4-1.4
				C317.4,231.7,316.8,231.2,315.9,231.2z"/>
			<path class="st6" d="M333.3,231.2c-0.9,0-1.4,0.6-1.4,1.4c0,0.9,0.6,1.4,1.4,1.4s1.4-0.6,1.4-1.4
				C334.8,231.7,334.2,231.2,333.3,231.2z"/>
			<path class="st6" d="M350.7,231.2c-0.9,0-1.4,0.6-1.4,1.4c0,0.9,0.6,1.4,1.4,1.4s1.4-0.6,1.4-1.4
				C352.2,231.7,351.6,231.2,350.7,231.2z"/>
			<path class="st6" d="M194.2,248.6c-0.9,0-1.4,0.6-1.4,1.4s0.6,1.4,1.4,1.4c0.9,0,1.4-0.6,1.4-1.4S195,248.6,194.2,248.6z"/>
			<path class="st6" d="M211.6,248.6c-0.9,0-1.4,0.6-1.4,1.4s0.6,1.4,1.4,1.4c0.9,0,1.4-0.6,1.4-1.4S212.4,248.6,211.6,248.6z"/>
			<path class="st6" d="M229,248.6c-0.9,0-1.4,0.6-1.4,1.4s0.6,1.4,1.4,1.4c0.9,0,1.4-0.6,1.4-1.4S229.8,248.6,229,248.6z"/>
			<path class="st6" d="M246.4,248.6c-0.9,0-1.4,0.6-1.4,1.4s0.6,1.4,1.4,1.4c0.9,0,1.4-0.6,1.4-1.4S247.2,248.6,246.4,248.6z"/>
			<path class="st6" d="M263.7,248.6c-0.9,0-1.4,0.6-1.4,1.4s0.6,1.4,1.4,1.4s1.4-0.6,1.4-1.4S264.6,248.6,263.7,248.6z"/>
			<path class="st6" d="M281.1,248.6c-0.9,0-1.4,0.6-1.4,1.4s0.6,1.4,1.4,1.4s1.4-0.6,1.4-1.4S282,248.6,281.1,248.6z"/>
			<path class="st6" d="M298.5,248.6c-0.9,0-1.4,0.6-1.4,1.4s0.6,1.4,1.4,1.4c0.9,0,1.4-0.6,1.4-1.4S299.4,248.6,298.5,248.6z"/>
			<path class="st6" d="M315.9,248.6c-0.9,0-1.4,0.6-1.4,1.4s0.6,1.4,1.4,1.4c0.9,0,1.4-0.6,1.4-1.4S316.8,248.6,315.9,248.6z"/>
			<path class="st6" d="M333.3,248.6c-0.9,0-1.4,0.6-1.4,1.4s0.6,1.4,1.4,1.4s1.4-0.6,1.4-1.4S334.2,248.6,333.3,248.6z"/>
			<path class="st6" d="M350.7,248.6c-0.9,0-1.4,0.6-1.4,1.4s0.6,1.4,1.4,1.4s1.4-0.6,1.4-1.4S351.6,248.6,350.7,248.6z"/>
			<path class="st6" d="M194.2,265.9c-0.9,0-1.4,0.6-1.4,1.4s0.6,1.4,1.4,1.4c0.9,0,1.4-0.6,1.4-1.4S195,265.9,194.2,265.9z"/>
			<path class="st6" d="M211.6,265.9c-0.9,0-1.4,0.6-1.4,1.4s0.6,1.4,1.4,1.4c0.9,0,1.4-0.6,1.4-1.4S212.4,265.9,211.6,265.9z"/>
			<path class="st6" d="M229,265.9c-0.9,0-1.4,0.6-1.4,1.4s0.6,1.4,1.4,1.4c0.9,0,1.4-0.6,1.4-1.4S229.8,265.9,229,265.9z"/>
			<path class="st6" d="M246.4,265.9c-0.9,0-1.4,0.6-1.4,1.4s0.6,1.4,1.4,1.4c0.9,0,1.4-0.6,1.4-1.4S247.2,265.9,246.4,265.9z"/>
			<path class="st6" d="M263.7,265.9c-0.9,0-1.4,0.6-1.4,1.4s0.6,1.4,1.4,1.4s1.4-0.6,1.4-1.4S264.6,265.9,263.7,265.9z"/>
			<path class="st6" d="M281.1,265.9c-0.9,0-1.4,0.6-1.4,1.4s0.6,1.4,1.4,1.4s1.4-0.6,1.4-1.4S282,265.9,281.1,265.9z"/>
			<path class="st6" d="M298.5,265.9c-0.9,0-1.4,0.6-1.4,1.4s0.6,1.4,1.4,1.4c0.9,0,1.4-0.6,1.4-1.4S299.4,265.9,298.5,265.9z"/>
			<path class="st6" d="M315.9,265.9c-0.9,0-1.4,0.6-1.4,1.4s0.6,1.4,1.4,1.4c0.9,0,1.4-0.6,1.4-1.4S316.8,265.9,315.9,265.9z"/>
			<path class="st6" d="M333.3,265.9c-0.9,0-1.4,0.6-1.4,1.4s0.6,1.4,1.4,1.4s1.4-0.6,1.4-1.4S334.2,265.9,333.3,265.9z"/>
			<path class="st6" d="M350.7,265.9c-0.9,0-1.4,0.6-1.4,1.4s0.6,1.4,1.4,1.4s1.4-0.6,1.4-1.4S351.6,265.9,350.7,265.9z"/>
			<path class="st6" d="M421.7,597.8c-0.9,0-1.4,0.6-1.4,1.4c0,0.9,0.6,1.4,1.4,1.4s1.4-0.6,1.4-1.4
				C423.2,598.4,422.6,597.8,421.7,597.8z"/>
			<path class="st6" d="M439.1,597.8c-0.9,0-1.4,0.6-1.4,1.4c0,0.9,0.6,1.4,1.4,1.4c0.9,0,1.4-0.6,1.4-1.4
				C440.6,598.4,440,597.8,439.1,597.8z"/>
			<path class="st6" d="M456.5,597.8c-0.9,0-1.4,0.6-1.4,1.4c0,0.9,0.6,1.4,1.4,1.4c0.9,0,1.4-0.6,1.4-1.4
				C457.9,598.4,457.4,597.8,456.5,597.8z"/>
			<path class="st6" d="M473.9,597.8c-0.9,0-1.4,0.6-1.4,1.4c0,0.9,0.6,1.4,1.4,1.4s1.4-0.6,1.4-1.4
				C475.3,598.4,474.8,597.8,473.9,597.8z"/>
			<path class="st6" d="M491.3,597.8c-0.9,0-1.4,0.6-1.4,1.4c0,0.9,0.6,1.4,1.4,1.4s1.4-0.6,1.4-1.4
				C492.7,598.4,492.2,597.8,491.3,597.8z"/>
			<path class="st6" d="M421.7,615.2c-0.9,0-1.4,0.6-1.4,1.4s0.6,1.4,1.4,1.4s1.4-0.6,1.4-1.4S422.6,615.2,421.7,615.2z"/>
			<path class="st6" d="M439.1,615.2c-0.9,0-1.4,0.6-1.4,1.4s0.6,1.4,1.4,1.4c0.9,0,1.4-0.6,1.4-1.4S440,615.2,439.1,615.2z"/>
			<path class="st6" d="M456.5,615.2c-0.9,0-1.4,0.6-1.4,1.4s0.6,1.4,1.4,1.4c0.9,0,1.4-0.6,1.4-1.4S457.4,615.2,456.5,615.2z"/>
			<path class="st6" d="M473.9,615.2c-0.9,0-1.4,0.6-1.4,1.4s0.6,1.4,1.4,1.4s1.4-0.6,1.4-1.4S474.8,615.2,473.9,615.2z"/>
			<path class="st6" d="M491.3,615.2c-0.9,0-1.4,0.6-1.4,1.4s0.6,1.4,1.4,1.4s1.4-0.6,1.4-1.4S492.2,615.2,491.3,615.2z"/>
			<path class="st6" d="M421.7,632.6c-0.9,0-1.4,0.6-1.4,1.4s0.6,1.4,1.4,1.4s1.4-0.6,1.4-1.4S422.6,632.6,421.7,632.6z"/>
			<path class="st6" d="M439.1,632.6c-0.9,0-1.4,0.6-1.4,1.4s0.6,1.4,1.4,1.4c0.9,0,1.4-0.6,1.4-1.4S440,632.6,439.1,632.6z"/>
			<path class="st6" d="M456.5,632.6c-0.9,0-1.4,0.6-1.4,1.4s0.6,1.4,1.4,1.4c0.9,0,1.4-0.6,1.4-1.4S457.4,632.6,456.5,632.6z"/>
			<path class="st6" d="M473.9,632.6c-0.9,0-1.4,0.6-1.4,1.4s0.6,1.4,1.4,1.4s1.4-0.6,1.4-1.4S474.8,632.6,473.9,632.6z"/>
			<path class="st6" d="M491.3,632.6c-0.9,0-1.4,0.6-1.4,1.4s0.6,1.4,1.4,1.4s1.4-0.6,1.4-1.4S492.2,632.6,491.3,632.6z"/>
			<path class="st6" d="M421.7,650c-0.9,0-1.4,0.6-1.4,1.4s0.6,1.4,1.4,1.4s1.4-0.6,1.4-1.4S422.6,650,421.7,650z"/>
			<path class="st6" d="M439.1,650c-0.9,0-1.4,0.6-1.4,1.4s0.6,1.4,1.4,1.4c0.9,0,1.4-0.6,1.4-1.4S440,650,439.1,650z"/>
			<path class="st6" d="M456.5,650c-0.9,0-1.4,0.6-1.4,1.4s0.6,1.4,1.4,1.4c0.9,0,1.4-0.6,1.4-1.4S457.4,650,456.5,650z"/>
			<path class="st6" d="M473.9,650c-0.9,0-1.4,0.6-1.4,1.4s0.6,1.4,1.4,1.4s1.4-0.6,1.4-1.4S474.8,650,473.9,650z"/>
			<path class="st6" d="M421.7,667.4c-0.9,0-1.4,0.6-1.4,1.4s0.6,1.4,1.4,1.4s1.4-0.6,1.4-1.4S422.6,667.4,421.7,667.4z"/>
			<path class="st6" d="M439.1,667.4c-0.9,0-1.4,0.6-1.4,1.4s0.6,1.4,1.4,1.4c0.9,0,1.4-0.6,1.4-1.4S440,667.4,439.1,667.4z"/>
			<path class="st6" d="M456.5,667.4c-0.9,0-1.4,0.6-1.4,1.4s0.6,1.4,1.4,1.4c0.9,0,1.4-0.6,1.4-1.4S457.4,667.4,456.5,667.4z"/>
			<path class="st6" d="M473.9,667.4c-0.9,0-1.4,0.6-1.4,1.4s0.6,1.4,1.4,1.4s1.4-0.6,1.4-1.4S474.8,667.4,473.9,667.4z"/>
		</g>
	</g>
</g>
</svg>
