<?xml version="1.0" encoding="UTF-8"?>
<svg version="1.1" viewBox="0 0 389 144" xmlns="http://www.w3.org/2000/svg" xmlns:xlink="http://www.w3.org/1999/xlink">
<title>Group 2</title>
<desc>Created with Sketch.</desc>
<defs>
<polygon id="n" points="114.87 50.352 70.982 32.548 0.3007 3.8777 0.22233 2.7151 105.32 0.39849 114.82 50.113"/>
<linearGradient id="b" x1="-30.203%" x2="73.521%" y1="8.2896%" y2="42.616%">
<stop stop-color="#0041C3" offset="0"/>
<stop stop-color="#0089FF" offset="1"/>
</linearGradient>
<polygon id="f" points="44.868 29.338 0.28298 11.164 15.391 0.68206 44.819 29.095"/>
<polygon id="e" points="0 0.28728 52.585 45.451 87.817 19.77 1.0914 0.12758"/>
<linearGradient id="a" y1="50%" y2="50%">
<stop stop-color="#00DDFD" offset="0"/>
<stop stop-color="#009EFD" offset="1"/>
</linearGradient>
<polygon id="d" points="0 20.276 107.04 24.358 140.42 0.62917"/>
<linearGradient id="c" x1=".99535%" y1=".96997%" y2="82.649%">
<stop stop-color="#00DDFD" offset="0"/>
<stop stop-color="#009EFD" offset="1"/>
</linearGradient>
<polygon id="m" points="0.75107 44.596 12.196 100.46 12.248 100.73 50.543 62.912 112.22 2.0097 111.8 0.76606"/>
<linearGradient id="ab" x1="132.86%" x2="27.766%" y1="-13.337%" y2="56.828%">
<stop stop-color="#D68000" offset="0"/>
<stop stop-color="#FF9000" offset="1"/>
</linearGradient>
<polygon id="l" points="0.30098 42.456 0.3527 42.727 38.567 4.7309 18.617 0.57706"/>
<polygon id="k" points="81.802 0.76851 0.81052 58.45 58.368 79.3 82.996 0.46128"/>
<linearGradient id="aa" x1="114.69%" x2="4.565%" y1="36.914%" y2="85.022%">
<stop stop-color="#FDC600" offset="0"/>
<stop stop-color="#FD8C11" offset="1"/>
</linearGradient>
<polygon id="j" points="0.021408 42.236 37.536 50.886 149 0.45315"/>
<linearGradient id="z" x1="94.146%" x2="4.956%" y1="-34.245%" y2="118.63%">
<stop stop-color="#FDC600" offset="0"/>
<stop stop-color="#FD8C11" offset="1"/>
</linearGradient>
<polygon id="i" points="133.85 58.25 82.71 37.653 0.35039 4.486 0.25907 3.141 122.72 0.461 133.79 57.974"/>
<polygon id="h" points="0 0.331 60.951 52.368 101.79 22.779 1.265 0.147"/>
<polygon id="g" points="0 23.52 125.26 28.255 164.32 0.72983"/>
</defs>
<g fill="none" fill-rule="evenodd">
<g transform="translate(-127 -2783)">
<g transform="translate(106 2743)">
<g transform="translate(172.68 140.47) rotate(7) translate(-159 -122)" opacity=".73184">
<g transform="translate(3.1481 76.574)">
<mask id="u" fill="white">
<use xlink:href="#n"/>
</mask>
<polygon points="114.87 50.352 70.982 32.548 0.3007 3.8777 0.22233 2.7151 105.32 0.39849 114.82 50.113" fill="url(#b)" mask="url(#u)"/>
</g>
<g transform="translate(73.662 97.322)">
<mask id="p" fill="white">
<use xlink:href="#f"/>
</mask>
<polygon points="44.868 29.338 0.28298 11.164 15.391 0.68206 44.819 29.095" mask="url(#p)"/>
</g>
<g transform="translate(.95899 78.481)">
<mask id="o" fill="white">
<use xlink:href="#e"/>
</mask>
<polygon points="0 0.28728 52.585 45.451 87.817 19.77 1.0914 0.12758" fill="url(#a)" mask="url(#o)"/>
</g>
<g transform="translate(1.624 59.954)">
<mask id="y" fill="white">
<use xlink:href="#d"/>
</mask>
<polygon points="0 20.276 107.04 24.358 140.42 0.62917" fill="url(#c)" mask="url(#y)"/>
</g>
<path d="m128.03 127.43c-0.06487 0-0.13059-0.006876-0.19632-0.023205-1.6422-0.38932-3.3135-0.73566-4.9686-1.0287-0.46434-0.081645-0.77418-0.52768-0.69223-0.99521 0.081088-0.46752 0.52238-0.7795 0.98842-0.69699 1.6858 0.29822 3.3903 0.65058 5.0641 1.0485 0.45836 0.10829 0.74259 0.57152 0.63419 1.033-0.093037 0.39619-0.443 0.66261-0.82966 0.66261m10.617 3.216c-0.097305 0-0.19632-0.017188-0.29362-0.052425-1.5902-0.58784-3.2077-1.1362-4.8081-1.6295-0.45068-0.13923-0.70418-0.61964-0.56676-1.0734 0.13828-0.45377 0.61883-0.70816 1.0661-0.5698 1.6303 0.5019 3.2777 1.0597 4.8969 1.6587 0.443 0.16329 0.66919 0.65746 0.50787 1.1026-0.12803 0.34807-0.45409 0.56378-0.80234 0.56378m10.168 4.4587c-0.12974 0-0.26119-0.029221-0.38495-0.091958-1.5048-0.76746-3.0489-1.5031-4.5879-2.1864-0.43019-0.19165-0.62566-0.69957-0.43531-1.1336 0.19034-0.43401 0.69309-0.6291 1.125-0.43916 1.5663 0.69527 3.1368 1.4438 4.6698 2.225 0.41995 0.21486 0.5881 0.73137 0.37556 1.1542-0.15022 0.29994-0.45068 0.47182-0.76222 0.47182m9.5914 5.6051c-0.16132 0-0.32435-0.046408-0.4686-0.1418-1.4058-0.93247-2.8569-1.8417-4.3105-2.7003-0.40629-0.23978-0.54286-0.7666-0.30472-1.1757 0.239-0.40908 0.76222-0.54831 1.1685-0.30681 1.4792 0.87403 2.955 1.7979 4.3864 2.7476 0.39349 0.2604 0.50189 0.7941 0.24241 1.1894-0.16388 0.25095-0.43617 0.3876-0.71357 0.3876m8.9026 6.6596c-0.1929 0-0.38666-0.065316-0.54628-0.20024-1.294-1.0863-2.6332-2.1537-3.981-3.1704-0.37813-0.28447-0.45409-0.82332-0.17156-1.2032 0.28338-0.37814 0.81856-0.45635 1.195-0.17188 1.3717 1.0347 2.7339 2.1202 4.051 3.2263 0.36191 0.30423 0.41141 0.84567 0.1084 1.2101-0.16815 0.20454-0.41056 0.30939-0.65553 0.30939m8.1028 7.6248c-0.22534 0-0.44982-0.08938-0.61712-0.26642-1.1668-1.229-2.378-2.4416-3.602-3.6018-0.34228-0.32572-0.35849-0.86973-0.034996-1.2152 0.32264-0.34463 0.8638-0.36182 1.2069-0.035237 1.2436 1.1817 2.477 2.4141 3.6635 3.6654 0.32606 0.34377 0.31411 0.88778-0.027314 1.2144-0.16474 0.15985-0.37727 0.23892-0.58895 0.23892m7.1878 8.5057c-0.25863 0-0.5147-0.11774-0.68199-0.34119-1.0123-1.3493-2.0776-2.6917-3.1675-3.9937-0.30387-0.36268-0.25863-0.90411 0.10243-1.2109 0.36105-0.30595 0.8988-0.25868 1.2027 0.10313 1.1096 1.3244 2.1945 2.6926 3.2247 4.0659 0.28423 0.37814 0.20912 0.917-0.1673 1.2032-0.15364 0.11774-0.33374 0.1736-0.51299 0.1736m6.1482 9.2912c-0.29362 0-0.57956-0.15298-0.73747-0.42627-0.84758-1.4627-1.7481-2.922-2.6776-4.3392-0.25948-0.39619-0.15108-0.92903 0.24241-1.1912 0.39434-0.25954 0.92269-0.15212 1.183 0.24408 0.94574 1.4438 1.8633 2.9306 2.7254 4.42 0.23729 0.40908 0.099866 0.93677-0.30643 1.1748-0.13572 0.079927-0.28338 0.11774-0.42934 0.11774m19.692 2.7776c-0.02646 0-0.05292-8.59e-4 -0.081088-0.004297-1.6653-0.15727-3.3656-0.26126-5.0548-0.30939-0.47116-0.013751-0.84331-0.40994-0.82966-0.88348 0.012804-0.4744 0.40288-0.82504 0.87746-0.83536 1.7267 0.049846 3.4654 0.15641 5.1674 0.31798 0.46946 0.043831 0.81344 0.46323 0.76905 0.93591-0.040971 0.44518-0.41312 0.77864-0.84844 0.77864m-16.192 0.1418c-0.43019 0-0.79893-0.32572-0.84758-0.76488-0.051213-0.47182 0.2868-0.89638 0.7554-0.9488 1.7105-0.18993 3.4467-0.32572 5.1589-0.40651 0.49933-0.036955 0.86977 0.34549 0.89282 0.81989 0.021339 0.47268-0.34313 0.87575-0.81344 0.89724-1.6772 0.078208-3.3767 0.21314-5.0513 0.39791-0.031581 0.003438-0.064017 0.005157-0.094745 0.005157m27.128 1.6922c-0.067431 0-0.13486-0.007735-0.20315-0.024064-1.6277-0.39791-3.2956-0.74598-4.9566-1.033-0.46433-0.080785-0.77588-0.52511-0.6965-0.99349 0.080234-0.46666 0.51469-0.78207 0.98671-0.70043 1.6986 0.29392 3.404 0.64972 5.0701 1.0562 0.45751 0.11172 0.73833 0.57667 0.62736 1.0382-0.094744 0.39276-0.44385 0.6566-0.82795 0.6566m-38.04 0.28619c-0.38154 0-0.72894-0.25954-0.8271-0.64972-0.11438-0.45979 0.16303-0.92732 0.61968-1.0433 1.661-0.42112 3.3613-0.79496 5.0548-1.1121 0.46092-0.087661 0.90818 0.22173 0.99525 0.6884 0.085355 0.46666-0.22022 0.91528-0.6837 1.0021-1.6576 0.30939-3.3229 0.67636-4.9498 1.0889-0.069991 0.017188-0.13998 0.025783-0.20912 0.025783m48.594 3.1283c-0.10669 0-0.21424-0.020626-0.31838-0.062737-1.5654-0.63425-3.1667-1.2221-4.7577-1.7481-0.44812-0.14782-0.69223-0.63339-0.54542-1.0846 0.14681-0.45034 0.62907-0.69699 1.0772-0.54831 1.6269 0.53714 3.2631 1.1379 4.8627 1.7867 0.43787 0.17704 0.64956 0.67808 0.47372 1.1181-0.13486 0.33517-0.45495 0.53886-0.7921 0.53886m-59.132 0.34033c-0.3363 0-0.65553-0.20196-0.79039-0.53628-0.17754-0.44002 0.033289-0.94106 0.46946-1.1198 1.5927-0.64972 3.2264-1.2573 4.8567-1.8022 0.44556-0.14696 0.93038 0.094536 1.0797 0.54401 0.14766 0.4512-0.093891 0.93677-0.54116 1.0872-1.5953 0.5337-3.1949 1.1276-4.7535 1.7644-0.10499 0.042971-0.21339 0.062738-0.32094 0.062738m22.937 1.6063c-0.33118 0-0.64614-0.19509-0.78527-0.52081-0.23131-0.54487-0.4669-1.0863-0.7076-1.6243-0.45068-1.0021-0.92867-2.0153-1.4212-3.0123-0.21083-0.42455-0.03841-0.94021 0.3841-1.1525 0.42166-0.21142 0.93379-0.036955 1.1446 0.3876 0.50104 1.015 0.98927 2.048 1.4476 3.0698 0.24582 0.54917 0.48653 1.1001 0.72211 1.6561 0.18522 0.43573-0.015364 0.94021-0.44897 1.1276-0.11011 0.047268-0.22363 0.068754-0.33545 0.068754m46.162 2.9401c-0.14425 0-0.29106-0.036955-0.42507-0.11516-1.4621-0.84739-2.9661-1.6552-4.4692-2.4038-0.42251-0.2097-0.59578-0.72449-0.38666-1.1508 0.20827-0.42455 0.7204-0.59988 1.1438-0.38932 1.5347 0.76317 3.0702 1.5891 4.564 2.4554 0.408 0.23634 0.54884 0.76231 0.31326 1.1731-0.15791 0.27587-0.44556 0.43057-0.74003 0.43057m-79.046 0.379c-0.29362 0-0.57956-0.15212-0.73747-0.42627-0.23814-0.40908-0.10072-0.93591 0.30557-1.1757 1.4801-0.87059 3.0131-1.7051 4.5554-2.4786 0.42166-0.214 0.93464-0.038674 1.1446 0.38588 0.20997 0.42541 0.03841 0.94021-0.38325 1.1533-1.5099 0.75543-3.0088 1.5719-4.4547 2.4236-0.13572 0.079926-0.28423 0.11774-0.43019 0.11774m88.25 5.8458c-0.18266 0-0.36703-0.05844-0.52323-0.18048-1.3315-1.0399-2.71-2.0489-4.0979-2.9985-0.39008-0.26642-0.49165-0.80184-0.22705-1.1937 0.26546-0.39276 0.79637-0.49503 1.1856-0.22775 1.4178 0.97029 2.8261 1.9999 4.1867 3.0621 0.37215 0.29048 0.44044 0.83106 0.15108 1.2066-0.16815 0.21829-0.41995 0.33174-0.67516 0.33174m-97.311 0.58269c-0.2407 0-0.4797-0.10141-0.6487-0.29994-0.30643-0.3601-0.26546-0.90239 0.092184-1.2118 1.2889-1.1138 2.6674-2.1984 4.0962-3.2237 0.3841-0.27416 0.91672-0.18564 1.1907 0.20196 0.27314 0.38588 0.18437 0.92302-0.19973 1.198-1.387 0.99521-2.7254 2.048-3.9759 3.1283-0.16047 0.13923-0.35849 0.20712-0.55481 0.20712m45.547 0.80872c-0.37983 0-0.72552-0.25611-0.82624-0.64456-0.40971-1.6037-0.89709-3.2452-1.4476-4.8781-0.15108-0.45034 0.088769-0.93763 0.53433-1.0906 0.44897-0.15126 0.93208 0.090239 1.0832 0.538 0.56335 1.6742 1.0627 3.3569 1.4843 5.001 0.11779 0.46065-0.15791 0.92903-0.61371 1.0476-0.071699 0.018907-0.1434 0.026642-0.21424 0.026642m60.036 6.0443c-0.22192 0-0.443-0.086802-0.61115-0.25869-1.1771-1.2144-2.4062-2.4038-3.6524-3.5357-0.34996-0.31713-0.37727-0.86114-0.061456-1.2135 0.31582-0.35408 0.85612-0.38072 1.2052-0.062738 1.2727 1.1559 2.5282 2.3711 3.7309 3.6096 0.32947 0.34033 0.32264 0.88434-0.01451 1.2169-0.16644 0.16243-0.38154 0.24408-0.59664 0.24408m-113.11 1.3235c-0.17156 0-0.34484-0.052425-0.49506-0.15985-0.3841-0.27587-0.47287-0.81215-0.19888-1.1989 0.97818-1.3802 2.0844-2.7527 3.2913-4.0797 0.31838-0.35064 0.85782-0.37557 1.2069-0.054143 0.3474 0.32056 0.37044 0.86372 0.05292 1.2135-1.16 1.2771-2.2235 2.5946-3.1616 3.919-0.16644 0.23462-0.42934 0.3601-0.69565 0.3601m54.815 3.6474c-0.44982 0-0.8271-0.35494-0.85185-0.81301-0.087063-1.6424-0.26375-3.338-0.52494-5.0422-0.071699-0.46924 0.24753-0.90755 0.71357-0.97974 0.46519-0.067894 0.90221 0.24923 0.97391 0.71848 0.26887 1.7592 0.45153 3.5125 0.54286 5.2107 0.025607 0.4744-0.33545 0.87919-0.80661 0.90497-0.016218 8.6e-4 -0.030728 8.6e-4 -0.046946 8.6e-4m65.463 3.5434c-0.2629 0-0.52238-0.12204-0.68882-0.35064-0.99781-1.3682-2.0494-2.7175-3.1283-4.0118-0.30301-0.36354-0.25521-0.90583 0.10584-1.2109 0.36276-0.30338 0.89965-0.25697 1.2027 0.10657 1.1011 1.3218 2.1766 2.7012 3.1949 4.0986 0.27911 0.38244 0.19802 0.92044-0.18266 1.2015-0.15193 0.11172-0.32862 0.16673-0.5036 0.16673m-125.12 2.7914c-0.075113 0-0.15108-0.010313-0.22705-0.030939-0.45409-0.12548-0.72211-0.59816-0.59664-1.0562 0.45324-1.6613 1.0763-3.3311 1.8505-4.9614 0.20315-0.42885 0.71443-0.60847 1.1386-0.40479 0.42507 0.20454 0.60517 0.71848 0.40117 1.1465-0.7315 1.5384-1.3179 3.1111-1.7438 4.6752-0.10499 0.38158-0.44897 0.63167-0.82283 0.63167m129.88 4.6039c-0.29704 0-0.58468-0.1547-0.74259-0.43315-0.45495-0.8027-0.9244-1.5977-1.4075-2.384-0.24753-0.40393-0.12377-0.93333 0.27655-1.1834 0.40032-0.25009 0.92696-0.12462 1.1753 0.27845 0.49336 0.80356 0.97305 1.6166 1.4382 2.4365 0.23387 0.41252 0.09133 0.93763-0.31752 1.1731-0.13401 0.076489-0.27911 0.11258-0.42251 0.11258m-70.989 0.17618c-0.057188 0-0.11438-0.005156-0.17242-0.017188-0.46177-0.094536-0.75966-0.54917-0.66492-1.0141 0.32947-1.6191 0.56079-3.3002 0.69053-4.9967 0.03585-0.47268 0.45495-0.8302 0.91587-0.79153 0.47031 0.036095 0.82198 0.44862 0.78612 0.92216-0.13401 1.7687-0.37642 3.5219-0.7204 5.2107-0.082795 0.40651-0.43787 0.68668-0.83478 0.68668m-59.39 6.2755c-0.39946 0-0.7571-0.28361-0.83734-0.69269-0.29106-1.4851-0.43958-2.9977-0.43958-4.4948l8.54e-4 -0.20626c0.001707-0.20454 0.005975-0.41338 0.012803-0.61964 0.016218-0.47526 0.39008-0.87059 0.88172-0.8302 0.47116 0.016329 0.84075 0.41338 0.82454 0.88778-0.006829 0.19251-0.010243 0.38588-0.01195 0.58011l-8.53e-4 0.18821c0 1.3854 0.13828 2.7854 0.40715 4.1622 0.09133 0.46495-0.20912 0.917-0.67175 1.0098-0.056335 0.010314-0.11182 0.01547-0.16559 0.01547m55.516 4.1441c-0.14254 0-0.2868-0.036096-0.41995-0.11086-0.40971-0.23376-0.55481-0.75801-0.32264-1.1714 0.82454-1.4687 1.5458-2.9968 2.1433-4.542 0.16986-0.4426 0.66663-0.66347 1.1045-0.48901 0.43958 0.17188 0.65724 0.66949 0.48567 1.1121-0.62651 1.6217-1.3828 3.2254-2.2474 4.7655-0.15705 0.27931-0.44641 0.43573-0.74345 0.43573m-50.986 5.9506c-0.26119 0-0.51896-0.11946-0.68626-0.3472-1.0635-1.4447-1.9811-2.9745-2.728-4.5489-0.20229-0.42799-0.022192-0.94107 0.40288-1.1456 0.42251-0.20454 0.93464-0.023204 1.1378 0.40565 0.69906 1.4748 1.5603 2.9091 2.5581 4.2653 0.28082 0.38072 0.20144 0.91958-0.17669 1.2023-0.15364 0.11344-0.33203 0.16845-0.50787 0.16845m44.172 2.8146c-0.22619 0-0.45238-0.091099-0.62054-0.26986-0.3235-0.34549-0.30813-0.8895 0.034996-1.2152 1.2044-1.1439 2.3439-2.3883 3.3878-3.6998 0.29533-0.37127 0.83136-0.42971 1.2001-0.13407 0.36788 0.29736 0.42763 0.83794 0.1323 1.2083-1.0934 1.3734-2.2875 2.678-3.5482 3.876-0.16559 0.15641-0.37642 0.23462-0.58639 0.23462m-36.043 4.6976c-0.15449 0-0.31069-0.042111-0.45153-0.13063-1.4895-0.93419-2.9064-2.0016-4.2132-3.1713-0.35166-0.31541-0.38325-0.85856-0.069992-1.2126 0.31155-0.35494 0.8527-0.38932 1.2044-0.071332 1.2342 1.1052 2.5743 2.1142 3.9818 2.9968 0.40032 0.25095 0.52238 0.78121 0.27314 1.1843-0.16132 0.26126-0.43958 0.40479-0.72467 0.40479m26.919 1.577c-0.32264 0-0.63078-0.18392-0.77503-0.49846-0.19888-0.43057-0.012804-0.94106 0.41483-1.1413 1.486-0.69355 2.9473-1.522 4.3455-2.4605 0.39093-0.26298 0.92184-0.15727 1.183 0.23806 0.26204 0.39447 0.1562 0.92817-0.23644 1.192-1.4698 0.98662-3.0079 1.8581-4.5734 2.5903-0.11608 0.054143-0.239 0.079926-0.35849 0.079926m-16.631 2.4261c-0.047799 0-0.097305-0.004297-0.14681-0.012891-1.708-0.29908-3.4202-0.7666-5.0863-1.3905-0.44214-0.16501-0.66748-0.66089-0.50274-1.1052 0.16474-0.44518 0.65638-0.67207 1.0977-0.5062 1.5688 0.58784 3.1778 1.0279 4.7833 1.308 0.46433 0.081645 0.77503 0.52682 0.69565 0.99435-0.072552 0.41768-0.43275 0.71246-0.84075 0.71246m5.9501 0.33689c-0.44726 0-0.82368-0.3515-0.851-0.807-0.028167-0.4744 0.33033-0.88176 0.79978-0.91013 1.6346-0.098834 3.2828-0.3515 4.9028-0.74942 0.4558-0.11258 0.92013 0.16931 1.0319 0.63167 0.11096 0.46151-0.16986 0.92646-0.62736 1.039-1.7182 0.42198-3.4689 0.68926-5.2033 0.7941-0.017924 8.59e-4 -0.034996 0.001719-0.05292 0.001719" fill="#008AFF"/>
<g transform="translate(203.46 .90601)">
<mask id="x" fill="white">
<use xlink:href="#m"/>
</mask>
<polygon points="0.75107 44.596 12.196 100.46 12.248 100.73 50.543 62.912 112.22 2.0097 111.8 0.76606" fill="url(#ab)" mask="url(#x)"/>
</g>
<g transform="translate(215.84 59.125)">
<mask id="w" fill="white">
<use xlink:href="#l"/>
</mask>
<polygon points="0.30098 42.456 0.3527 42.727 38.567 4.7309 18.617 0.57706" mask="url(#w)"/>
</g>
<g transform="translate(234.3 .89759)">
<mask id="v" fill="white">
<use xlink:href="#k"/>
</mask>
<polygon points="81.802 0.76851 0.81052 58.45 58.368 79.3 82.996 0.46128" fill="url(#aa)" mask="url(#v)"/>
</g>
<g transform="translate(167.52 2.9204)">
<mask id="t" fill="white">
<use xlink:href="#j"/>
</mask>
<polygon points="0.021408 42.236 37.536 50.886 149 0.45315" fill="url(#z)" mask="url(#t)"/>
</g>
<path d="m155.57 102.41c-0.28924 0-0.57167-0.14842-0.73076-0.41694-0.2416-0.40579-0.11059-0.9334 0.29179-1.177 1.6163-0.97629 3.2948-1.6472 4.9911-1.9938 0.46108-0.095227 0.90855 0.20675 1.0021 0.67002 0.093577 0.46498-0.20417 0.9171-0.66525 1.0115-1.504 0.30799-3.003 0.90766-4.4526 1.7844-0.13696 0.082358-0.28754 0.12182-0.43641 0.12182zm14.777 1.3092c-0.23309 0-0.46619-0.096085-0.63378-0.28568-0.68141-0.76782-1.4802-1.419-2.376-1.9346-0.46704-0.26938-0.9596-0.49844-1.4624-0.67946-0.44237-0.15957-0.67376-0.65029-0.51468-1.0964 0.15738-0.44611 0.64824-0.67774 1.0864-0.51989 0.59805 0.21533 1.1816 0.48643 1.7346 0.80557 1.0549 0.60739 1.9975 1.3752 2.7997 2.2812 0.31306 0.3526 0.28328 0.89565-0.067206 1.2114-0.16163 0.14584-0.36495 0.21791-0.56657 0.21791zm-21.917 6.9662c-0.10889 0-0.21948-0.021448-0.32667-0.066917-0.43386-0.18273-0.63803-0.68461-0.45683-1.1221 0.13781-0.33287 0.28499-0.66402 0.44152-0.99088 0.60485-1.2663 1.3875-2.4819 2.325-3.6135 0.30115-0.36204 0.83794-0.41265 1.1995-0.10724 0.35985 0.3037 0.40749 0.84418 0.10634 1.2079-0.84815 1.0235-1.5542 2.119-2.0987 3.2583-0.14292 0.29941-0.27733 0.60139-0.40408 0.9068-0.13611 0.32943-0.45258 0.52761-0.78605 0.52761zm59.621 1.3169c-0.15228 0-0.30796-0.041179-0.44747-0.12868-0.39898-0.24965-0.52148-0.77898-0.27393-1.1813 0.89749-1.4602 1.7805-2.9254 2.6576-4.3847 0.24415-0.40493 0.76734-0.53447 1.1689-0.28826 0.40153 0.24536 0.52999 0.77297 0.28669 1.1779-0.88048 1.4644-1.7661 2.9349-2.6678 4.3993-0.16078 0.26252-0.43896 0.40579-0.72395 0.40579zm-34.551 2.1233c-0.01191 0-0.022969-8.58e-4 -0.034879-8.58e-4 -0.46959-0.018873-0.83454-0.41866-0.81583-0.89136 0.010208-0.2608 0.015312-0.51989 0.015312-0.77898 8.51e-4 -1.443-0.15738-2.8182-0.46959-4.0879-0.11314-0.45984 0.16504-0.92482 0.62102-1.0389 0.44917-0.1141 0.91706 0.16558 1.0302 0.62627 0.34624 1.4052 0.52063 2.9194 0.51978 4.5006 0 0.28139-0.005105 0.5645-0.017014 0.84761-0.017865 0.46155-0.39558 0.82359-0.849 0.82359zm28.429 7.1626c-0.1744 0-0.34964-0.05319-0.50192-0.16558-0.37856-0.27968-0.46108-0.81586-0.18375-1.1985 0.94258-1.2989 1.8894-2.6715 2.8932-4.1943 0.26032-0.39549 0.78946-0.50187 1.1799-0.23935 0.39132 0.26166 0.49766 0.79442 0.23735 1.1891-1.0183 1.5451-1.9796 2.9375-2.9375 4.2578-0.16674 0.22992-0.4245 0.35088-0.68737 0.35088zm-54.891 0.33544c-0.4228 0-0.78945-0.31828-0.84305-0.75238-0.11995-0.98058-0.18035-1.9706-0.18035-2.9443 0-0.80042 0.039983-1.6043 0.12165-2.3867 0.04849-0.47099 0.46023-0.81329 0.93492-0.76439 0.46704 0.049758 0.80562 0.47099 0.75713 0.94198-0.074862 0.72493-0.11229 1.4679-0.11229 2.2091 0 0.90337 0.056147 1.823 0.16759 2.7333 0.056997 0.47099-0.27308 0.89908-0.74011 0.95656-0.034879 0.005147-0.070609 0.006863-0.10549 0.006863zm23.432 3.1228c-0.13866 0-0.27903-0.034316-0.41004-0.10638-0.41174-0.22906-0.56146-0.75066-0.33433-1.1659 0.25351-0.46327 0.49511-0.9334 0.72395-1.4095 0.4798-0.99517 0.89154-2.0538 1.225-3.1468 0.13866-0.45212 0.61336-0.70777 1.0634-0.56793 0.44917 0.13984 0.70098 0.61941 0.56317 1.0724-0.35985 1.177-0.80477 2.3181-1.3211 3.3913-0.24245 0.50359-0.49766 1.0003-0.76393 1.4885-0.15568 0.28397-0.44662 0.44439-0.74607 0.44439zm24.308 5.0325c-0.21948 0-0.43896-0.084933-0.60485-0.2548-0.33092-0.33716-0.32752-0.87935 0.006806-1.2131 1.1459-1.1444 2.2969-2.397 3.4181-3.7216 0.3071-0.36118 0.8439-0.4015 1.1995-0.095227 0.3573 0.30799 0.39983 0.84932 0.095279 1.2096-1.1527 1.3606-2.3352 2.6483-3.5168 3.8271-0.16504 0.16472-0.38197 0.24793-0.59804 0.24793zm-43.898 2.1937c-0.27222 0-0.53935-0.13126-0.70438-0.3749-0.98001-1.455-1.8094-3.0404-2.4619-4.7125-0.17184-0.44096 0.041685-0.93854 0.47895-1.1127 0.44066-0.17244 0.93237 0.043753 1.1034 0.48386 0.6074 1.5537 1.3764 3.0267 2.2875 4.3762 0.26372 0.39206 0.16248 0.92568-0.22629 1.1925-0.14632 0.10038-0.31221 0.14756-0.47725 0.14756zm-60.728 0.49415c-0.40834 0-0.76819-0.29683-0.83794-0.71549-0.079116-0.4667 0.23394-0.91023 0.69758-0.98916 1.5823-0.26852 3.2625-0.40493 4.9962-0.40493l0.23735 0.001716c0.46959 0.004289 0.84645 0.39378 0.84135 0.86648-0.0051042 0.47099-0.38537 0.84932-0.85071 0.84932h-0.0093577l-0.22799-0.001716c-1.6291 0-3.214 0.12783-4.7035 0.38177-0.04849 0.007722-0.09613 0.012011-0.14292 0.012011zm73.486 0.98573c-0.22969 0-0.45938-0.093512-0.62697-0.27882-0.31731-0.34917-0.29434-0.89222 0.053594-1.2114 1.2293-1.135 2.3777-2.3627 3.4156-3.6478 0.29605-0.36547 0.83284-0.42209 1.1969-0.12354 0.3641 0.29941 0.4194 0.83989 0.1225 1.2071-1.0889 1.3503-2.2961 2.638-3.5874 3.8288-0.16248 0.15099-0.36836 0.22563-0.57423 0.22563zm-57.482 0.20161c-0.069758 0-0.14122-0.007721-0.21268-0.026595-1.6989-0.44182-3.3518-0.79356-4.9145-1.0458-0.46448-0.07378-0.7801-0.51388-0.70609-0.9823 0.074012-0.46756 0.51468-0.78755 0.97406-0.7112 1.6155 0.2608 3.3212 0.62198 5.0711 1.0775 0.45513 0.11839 0.7299 0.58595 0.61166 1.0449-0.098682 0.38691-0.44492 0.64343-0.82348 0.64343zm79.928 2.9658c-0.29434 0-0.57933-0.15271-0.73671-0.42809-0.23565-0.41008-0.09613-0.93426 0.30966-1.1719 1.0795-0.62884 2.1259-1.316 3.111-2.0418 0.34454-0.25308 0.68482-0.51131 1.0208-0.77383 0.37261-0.28911 0.90515-0.2222 1.1935 0.15356 0.28754 0.37404 0.21948 0.91281-0.15228 1.2036-0.34879 0.27196-0.70098 0.53962-1.0583 0.803-1.0345 0.76096-2.1327 1.4816-3.2625 2.1405-0.13441 0.07807-0.28073 0.11496-0.42535 0.11496zm-106.03 0.12011c-0.26372 0-0.52318-0.12182-0.68992-0.35346-0.27563-0.38262-0.19226-0.91967 0.18886-1.1976 1.4411-1.0578 2.9536-1.944 4.4968-2.6363 0.42876-0.1896 0.963-0.01201 1.1536 0.41866 0.19226 0.43067 0.034879 0.9231-0.39218 1.1178l-0.35049-0.78155 0.34198 0.78584c-0.0085071 0.004289-0.07231 0.031742-0.081668 0.036031-1.4139 0.63399-2.8226 1.4602-4.1685 2.4467-0.15057 0.11067-0.32582 0.16386-0.49851 0.16386zm36.61 0.38691c-0.098682 0-0.19736-0.016301-0.29434-0.052332-1.4394-0.53447-3.1153-1.1522-4.7869-1.7287-0.44407-0.15356-0.68227-0.64085-0.52999-1.0887 0.15228-0.44954 0.63803-0.68461 1.0804-0.53447 1.6886 0.58166 3.3756 1.2036 4.8235 1.7415 0.44152 0.163 0.6678 0.6563 0.50532 1.1015-0.12676 0.34659-0.45172 0.56107-0.79796 0.56107zm37.813 2.4931c-0.31986 0-0.62697-0.18359-0.77074-0.49587-0.19906-0.42981-0.014462-0.9394 0.41089-1.1402 0.51298-0.24107 1.0208-0.49501 1.5245-0.76182-0.45087-0.31742-0.89154-0.65544-1.3186-1.0098-0.3624-0.30198-0.41344-0.84332-0.11485-1.2079 0.3003-0.36461 0.83709-0.41608 1.1986-0.11582 0.6074 0.5053 1.2463 0.97286 1.9005 1.3907 0.39388-0.23678 0.78265-0.48128 1.1655-0.73265 0.39303-0.25909 0.92046-0.14584 1.1774 0.25136 0.25606 0.39721 0.14462 0.92825-0.24926 1.1865-0.13356 0.088364-0.26797 0.17501-0.40323 0.2608 0.1778 0.09008 0.35644 0.1793 0.53594 0.26423 0.42535 0.20161 0.6074 0.71292 0.40834 1.1419-0.20077 0.42981-0.70779 0.61083-1.1323 0.41094-0.51468-0.2445-1.0217-0.51045-1.5168-0.7927-0.80477 0.45555-1.6265 0.87935-2.4568 1.2697-0.11655 0.054048-0.2382 0.080643-0.359 0.080643zm21.341 1.0278c-0.39218 0-0.74522-0.27539-0.83114-0.67688-0.098682-0.46327 0.19396-0.92053 0.65249-1.02 1.5942-0.34573 3.1995-0.82444 4.7699-1.4215 0.43981-0.16815 0.93067 0.056621 1.0957 0.50016 0.16674 0.44354-0.056147 0.93854-0.49596 1.105-1.6487 0.62798-3.3356 1.1307-5.0107 1.4936-0.061251 0.013727-0.12165 0.019732-0.18035 0.019732zm-48.706 0.13126c-0.079967 0-0.16163-0.011153-0.24245-0.035174-1.47-0.44096-3.0693-0.96857-4.8907-1.6137-0.44322-0.15614-0.67631-0.64686-0.52063-1.093 0.15568-0.44782 0.63973-0.68375 1.0846-0.52504 1.795 0.6357 3.3688 1.1547 4.8107 1.5863 0.45002 0.13469 0.70694 0.61254 0.57338 1.0664-0.10974 0.37319-0.44747 0.61426-0.81498 0.61426zm42.318 0.57479c-1.6206 0-3.2182-0.1407-4.7478-0.41694-0.46278-0.084074-0.76989-0.52933-0.68737-0.99602 0.083369-0.46584 0.52829-0.77812 0.98852-0.69318 1.43 0.25909 2.9264 0.39034 4.4466 0.39034l0.47044-0.004289h0.012761c0.46448 0 0.8439 0.37576 0.8507 0.84503 0.007657 0.47356-0.3675 0.86305-0.83709 0.87077l-0.49681 0.004289zm-25.537 1.3418c-0.4245 0-0.79201-0.32086-0.8439-0.75581-0.056147-0.47013 0.27648-0.89737 0.74266-0.95485 1.6291-0.19732 3.2701-0.52504 4.8779-0.97286 0.45428-0.12697 0.92131 0.14155 1.0464 0.59796 0.1259 0.4564-0.14037 0.92911-0.59294 1.0552-1.6886 0.47099-3.4147 0.81586-5.1272 1.0243-0.034879 0.00429-0.068907 0.006005-0.10294 0.006005zm-5.943 0.17244c-0.017014 0-0.034879-8.58e-4 -0.052744-0.001716-1.675-0.10381-3.3645-0.32086-5.1655-0.66487-0.46108-0.087506-0.76393-0.53705-0.67716-1.002 0.087623-0.46584 0.53169-0.77125 0.99362-0.68375 1.7295 0.32943 3.3501 0.5379 4.9537 0.63828 0.46874 0.029169 0.82518 0.43496 0.79626 0.90852-0.027223 0.45469-0.40153 0.80557-0.84815 0.80557zm-65.522 1.8831c-0.17014 0-0.34368-0.051474-0.49256-0.15957-0.38367-0.27367-0.47214-0.80986-0.20077-1.1959 1.0489-1.485 2.1489-2.8602 3.2718-4.0879 0.31731-0.34917 0.85666-0.3689 1.202-0.048901 0.34454 0.32171 0.36665 0.86391 0.04849 1.2122-1.0744 1.1745-2.1293 2.4931-3.1357 3.9198-0.16589 0.23506-0.4279 0.36032-0.69332 0.36032zm-5.4505 9.6857c-0.11655 0-0.23479-0.024021-0.34794-0.075495-0.42876-0.19303-0.62016-0.70091-0.4279-1.1333 0.70779-1.5914 1.4879-3.1614 2.319-4.6678 0.22799-0.41351 0.74522-0.5645 1.1561-0.33201 0.41174 0.22992 0.55976 0.75238 0.33092 1.1667-0.80732 1.4636-1.5653 2.9889-2.2535 4.5349-0.14122 0.31828-0.45172 0.50702-0.77669 0.50702zm-3.6044 10.528c-0.068056 0-0.13696-0.008579-0.20672-0.025737-0.45513-0.11496-0.73246-0.5808-0.61931-1.0406 0.41685-1.6849 0.906-3.3681 1.453-5.005 0.15057-0.44954 0.63207-0.69318 1.0787-0.53876 0.44407 0.15185 0.68397 0.63828 0.53424 1.087-0.53339 1.5923-1.0098 3.2326-1.4147 4.8729-0.09613 0.38949-0.44407 0.65029-0.82518 0.65029zm-1.7601 10.997c-0.022118 0-0.044237-8.58e-4 -0.065504-0.002574-0.46874-0.036032-0.81923-0.44868-0.7835-0.92053 0.13016-1.7295 0.32922-3.4711 0.59124-5.1783 0.07231-0.46842 0.50957-0.7867 0.97151-0.71635 0.46448 0.072922 0.78265 0.51045 0.71034 0.97887-0.25521 1.6635-0.45002 3.3613-0.57678 5.0462-0.034028 0.44954-0.40749 0.7927-0.8473 0.7927zm0.062952 11.139c-0.43641 0-0.80732-0.33544-0.84645-0.78241-0.15143-1.7244-0.2382-3.4754-0.26032-5.204-0.0059549-0.47442 0.37091-0.86305 0.84135-0.86906 0.43556 0.0163 0.85411 0.37404 0.86006 0.84761 0.021268 1.6858 0.10549 3.393 0.25351 5.0745 0.041684 0.47185-0.30455 0.88879-0.77244 0.92997-0.025521 0.002573-0.051042 0.003431-0.075713 0.003431zm1.8809 10.978c-0.37771 0-0.7231-0.25566-0.82263-0.64171-0.43216-1.6729-0.80392-3.3861-1.1076-5.0908-0.082518-0.4667 0.22459-0.91281 0.68737-0.99688 0.46448-0.086649 0.90515 0.22734 0.98767 0.69318 0.29519 1.6626 0.65845 3.3321 1.0795 4.9621 0.1174 0.45812-0.15483 0.92739-0.6091 1.0466-0.07231 0.018016-0.14462 0.027453-0.21523 0.027453zm3.6946 10.497c-0.32327 0-0.63122-0.18531-0.77414-0.50016-0.70949-1.5648-1.3679-3.1888-1.9558-4.8291-0.16078-0.44525 0.068056-0.93683 0.50957-1.099 0.44322-0.16386 0.92982 0.06949 1.0906 0.5156 0.57167 1.5957 1.2123 3.1768 1.903 4.6979 0.19481 0.43067 0.0068057 0.94026-0.42025 1.1376-0.11485 0.052332-0.23565 0.077212-0.35304 0.077212zm5.1859 9.2293c-0.27052 0-0.53509-0.12869-0.70098-0.36976-0.87282-1.2766-1.7099-2.6063-2.4875-3.9541-0.23565-0.40922-0.097831-0.93511 0.30796-1.1728 0.40579-0.2385 0.92727-0.099517 1.1629 0.3097 0.75543 1.31 1.5687 2.6029 2.4169 3.8417 0.26712 0.39035 0.17014 0.92396-0.21693 1.1942-0.14717 0.10209-0.31561 0.15099-0.48235 0.15099z" fill="#FF9000"/>
</g>
<g transform="translate(245 142)" opacity=".54501">
<g transform="translate(1 20)">
<mask id="s" fill="white">
<use xlink:href="#i"/>
</mask>
<polygon points="133.85 58.25 82.71 37.653 0.35039 4.486 0.25907 3.141 122.72 0.461 133.79 57.974" fill="url(#b)" mask="url(#s)"/>
</g>
<g transform="translate(0 23)">
<mask id="r" fill="white">
<use xlink:href="#h"/>
</mask>
<polygon points="0 0.331 60.951 52.368 101.79 22.779 1.265 0.147" fill="url(#a)" mask="url(#r)"/>
</g>
<mask id="q" fill="white">
<use xlink:href="#g"/>
</mask>
<polygon points="0 23.52 125.26 28.255 164.32 0.72983" fill="url(#c)" mask="url(#q)"/>
</g>
</g>
</g>
</g>
</svg>
